<?xml version="1.0" encoding="UTF-8"?>
<!DOCTYPE svg PUBLIC "-//W3C//DTD SVG 1.1//EN" "http://www.w3.org/Graphics/SVG/1.1/DTD/svg11.dtd">
<!-- Creator: CorelDRAW -->
<svg xmlns="http://www.w3.org/2000/svg" xml:space="preserve" width="210mm" height="297mm" version="1.1" style="shape-rendering:geometricPrecision; text-rendering:geometricPrecision; image-rendering:optimizeQuality; fill-rule:evenodd; clip-rule:evenodd"
viewBox="0 0 21000 29700"
 xmlns:xlink="http://www.w3.org/1999/xlink"
 xmlns:xodm="http://www.corel.com/coreldraw/odm/2003">
 <defs>
  <style type="text/css">
   <![CDATA[
    .str0 {stroke:black;stroke-width:20;stroke-miterlimit:22.9256}
    .fil1 {fill:blue}
    .fil0 {fill:red}
    .fil2 {fill:white}
   ]]>
  </style>
 </defs>
 <g id="Camada_x0020_1">
  <metadata id="CorelCorpID_0Corel-Layer"/>
  <rect class="fil0 str0" x="31513.98" y="7744.49" width="32442.13" height="31862.8"/>
  <rect class="fil1 str0" x="-32779.68" y="-308.11" width="24594.85" height="30535.37"/>
  <image id="Padrão_x0020_vertical_x0020_-_x0020_ByAvanced_x0020__x0028_1_x0029_.png" x="-37693.19" y="-7605.52" width="28575.04" height="35720.92" xlink:href="financas svg 1_Images\financas svg 1_ImgID1.png"/>
  <g id="_2234634471136">
   <path class="fil2" d="M-27153.39 12726.82c-182.2,141.93 -372.55,358.03 -551.18,515.61 -94.75,83.58 -184.2,169.93 -280.46,252.85 -112.69,97.07 47.8,237.05 114.92,320.79 286.43,357.31 180.29,437.69 539.72,156.15 90.82,-71.14 525.24,-467.9 600.71,-452.08 35.11,65.88 16.62,3704.89 16.56,4295.15 -0.04,413.44 -66.08,380.59 338.59,381.12 245.42,0.32 519.92,83.95 499.31,-218.81 -30.62,-449.88 -8.16,-966.73 -8.16,-1423.85l-8.47 -4309.54c-174.54,-78.88 -1097.81,-33.86 -1354.67,-33.86 -70.06,0 -289.53,-8.79 -342.8,4.93 -188.33,48.5 335.61,320.77 435.93,511.54z"/>
   <path class="fil2" d="M-23364.12 14340.14l141.46 1162.39 -628.94 1.59c-195.8,3.03 -89.96,-51.57 -54.78,-148.37 24.4,-67.12 70.23,-143.99 107.22,-206.04 70.25,-117.82 133.91,-299.33 201.82,-416.25 33.04,-56.89 86.03,-144.68 107.14,-206.13 17.63,-51.3 33.91,-37.77 53.19,-99.21 25.1,-79.96 27.06,-31.06 72.89,-87.98zm-2053.6 2374.48c108.2,70.87 272.99,50.81 406.4,50.8 88.2,0 368.45,29.57 408.89,-48.31 23.46,-45.2 0,-38.66 31.94,-78.13 37.06,-45.81 20.74,-25.15 39.94,-78.59 0.76,-2.1 77.9,-145.04 80.32,-148.28 44.44,-59.46 120.16,-223.97 158.58,-298.62 76.65,0 1133.33,-7.64 1154.46,5.47 13.18,8.18 54.16,276.92 63.71,325.76 73.47,375.74 -85.1,364.01 415.87,353.18 417.14,-9.01 416.96,81.81 333.56,-349.26 -42.33,-218.78 -50.67,-445.69 -108.96,-661.32 -51.12,-189.1 -55.16,-472.32 -110.64,-668.3 -52.25,-184.55 -56.6,-475.76 -109.09,-661.37 -54.58,-193 -58.82,-481.84 -111.49,-667.45 -113,-398.14 40.31,-306.63 -460.66,-310.14 -525.35,-3.69 -402.43,-37.3 -553.28,226.23 -188.57,329.42 -359.9,672.1 -545.37,1003.7 -184.75,330.32 -367.46,670.09 -544.81,1004.59 -163.46,308.31 -363.42,715.16 -549.37,1000.04z"/>
   <path class="fil2" d="M-27263.51 14608.27c-38.62,0.22 -532.88,292.74 -610.24,336.12 -144.18,80.86 -102.27,230.6 -99.66,374.47 2.81,155.57 -1.24,316.57 -1.24,472.89 0,315.9 2.67,632.89 0.36,948.63 -2.41,327.99 79.52,618.33 -383.48,564.74 -166.41,-19.26 -175.65,-163.64 -175.69,-302.62l0.01 -1430.89c0.02,-210.89 33.58,-295.76 -182.22,-165.28 -63.27,38.26 -241.33,143.41 -290.19,183.96 -92.11,76.44 -241.06,100.6 -239.62,234.5 1.72,161.07 0.81,322.3 0.83,483.43 0.04,507.9 -76.67,1194.46 310.45,1586.08 362.78,367 967.97,391.74 1363.56,62.54 476.51,-396.56 374.92,-974.23 374.92,-1530.09 0,-316.09 0,-632.17 0,-948.26 0,-114.85 56.14,-870.91 -67.79,-870.22z"/>
   <path class="fil2" d="M-15088.37 14360.88l-1278.47 -16.93c47.94,-135.26 37.1,-253.92 77.64,-388.79 56.3,-187.28 32.97,-263.13 -183.67,-242.49 -529.44,50.43 -421.86,-148.5 -533.91,414.63 -104.77,526.53 -191.27,1062.52 -288.52,1591.13 -106.07,576.5 -58.2,1075.53 629.48,1160.74 554.3,68.68 960.02,-118.32 1227.68,-607.46 122.64,-224.14 144.69,-495.11 194.53,-741.27 18.53,-91.49 107.27,-299.07 -37.23,-321.25 -19.11,-2.93 -449.63,-18.71 -456.08,-17.36 -281.65,58.92 -24.59,1290.56 -774.75,1074.72 -255.94,-73.64 -110.34,-515.17 -72.62,-709.2 25.27,-130.04 50.03,-260.56 74.93,-390.72 85.15,-445 -104.43,-280.81 1082.32,-280.81 198.19,0 297.5,55.58 324.34,-149.79 16.98,-129.85 110.83,-231.59 14.33,-375.15z"/>
   <path class="fil2" d="M-11412.19 14348.11c-308.76,15.25 -542.11,37.82 -801.52,228.9 -237.3,174.79 -319.67,454.44 -258.02,740.5 128.82,597.73 1237.66,526.29 1271.16,806.35 39.14,327.22 -598.76,301.49 -727.24,215.74 -229.13,-152.92 -15.44,-294.74 -213.2,-303.27 -163.06,-7.04 -340.75,-18.45 -508.31,-6.87 -285.51,19.75 -35.67,548.28 123.62,670.96 245.1,188.77 516.95,225.79 815.54,225.94 339.26,0.16 535.98,-33.55 834.84,-198.16 226.9,-124.98 395.17,-381.45 392.78,-639.94 -3.14,-338.89 -72.02,-499.05 -409.9,-623.16 -259.23,-95.23 -534.28,-136.89 -790.6,-250.84 -160.68,-71.42 -166.38,-252.62 -40.49,-299.43 106.25,-39.51 334.41,-63.42 445.46,-37.91 286.63,65.85 149,126.1 242.74,273.87 44.19,69.67 384.53,37.69 477.49,40.68 225.44,7.25 222.17,-113.39 171.48,-317.66 -27.91,-112.49 -94.69,-255.47 -184.46,-331.47 -229.13,-193.98 -555.8,-208.33 -841.37,-194.23z"/>
   <path class="fil2" d="M-14768.21 14379.7c-112.71,46.3 -160.9,612.13 -189.92,746.43 -55.66,257.67 -99.23,531.94 -146.43,792.69 -49.47,273.28 -69.51,519 120.32,750.94 161.32,197.1 442.43,276.25 689.14,240.56 454.91,-65.8 617.83,-361.71 616.87,-242.67 -1.9,235.97 -32.81,195.24 246.36,197.99 123.23,1.21 333.86,50.83 396.8,-78.79 26.68,-54.94 132.18,-681.83 149.55,-790.38 40.58,-253.47 91.37,-551.87 147.48,-800.8 27.47,-121.88 51.62,-266.94 70.32,-391.11 15.98,-106.07 107.78,-311.74 8.67,-382.98 -48.15,-34.6 -363.38,-31 -445.93,-33.45 -185.77,-5.51 -205.85,98.39 -221.14,253.34 -23.42,237.27 -101.53,550.62 -146.46,793.33 -43.65,235.76 -60.82,533.06 -234.22,714.27 -147.28,153.9 -554.48,276.25 -676.58,90.24 -101.41,-154.48 30.88,-624.47 61.06,-816.04 38.47,-244.1 92.81,-553.62 149.93,-792.06 35.3,-147.35 73.77,-252.57 -122.26,-264.42 -62.74,-3.79 -433.17,-3.69 -473.56,12.91z"/>
   <path class="fil2" d="M-20700.44 16535.58c19.09,45.31 -86.42,180.66 -20.85,257.82l609.22 2.93c14.69,-10.21 74.83,-238.28 80.28,-275.32 8.55,-58.15 4.6,-108.19 13.31,-164.49 9,-58.13 31.9,-74.27 42.47,-135.33 10.43,-60.17 7.8,-106.38 13.88,-163.92 7.67,-72.56 30.54,-76.36 42.01,-135.79 10.31,-53.4 11.94,-109.21 14.73,-163.08 3.95,-76.55 27.29,-81.2 41.73,-144.53 27.15,-118.99 11.04,-165.08 53.81,-301.79 31.55,-100.85 11.74,-173.1 57.11,-306.96 43.87,-129.44 51.65,-495.84 109.3,-610.37 -89.83,-55.44 -563,-85.28 -648.23,-38.63 -74.16,40.6 -119.02,465.53 -144.14,567.07 -74.2,299.92 -101.94,916.17 -288.35,1142.52 -240.59,292.13 -888.16,365.84 -727.9,-255.15 94.07,-364.56 153.89,-827.49 220.37,-1205.28 14.2,-80.68 91.47,-208.12 -2.47,-258.04 -61.64,-32.77 -259.39,-19.18 -339.22,-19.9 -427.44,-3.84 -267.49,16.1 -360.69,350.54 -49.84,178.85 -61.74,421.01 -108.72,602.59 -49.68,192.01 -67.47,416.77 -109.16,610.28 -85.99,399.19 -3.65,774.08 415,927.91 571.46,209.99 1012.34,-283.2 1036.51,-283.08z"/>
   <path class="fil2" d="M-18527.31 14296c-460.23,39.98 -861.76,349.55 -1038.09,769.46 -180.27,429.26 -231.72,1082.97 48.37,1480.41 285.35,404.91 954.27,407.05 1353.03,191.92 197.24,-106.4 358.88,-231.26 490.95,-414.96 363.53,-505.6 93.95,-408.63 -121.84,-414.27 -514.89,-13.48 -272.71,21.59 -590.53,303.02 -129.28,114.49 -545.13,126.47 -595.11,-151.4 -46.96,-261.06 -15.56,-383.59 -2.3,-623.81 6.19,-112.08 40.31,-93.37 55.21,-173.4 18.96,-101.85 111.76,-207.22 181.05,-276.14 73.04,-72.65 236.34,-105.06 342.1,-115.81 109.34,-11.11 272.79,41.19 328.2,115.56 71.89,96.5 -27.86,276.25 178.13,279.16 569.91,8.05 609.3,69.27 542,-324.08 -97.67,-570.84 -678.55,-688.46 -1171.17,-645.66z"/>
   <path class="fil2" d="M-29481.51 14860.21c203.79,139.67 185.6,323.72 464.69,143.38 52.26,-33.77 318.54,-200.57 367.62,-216.59 65.17,-21.27 74.21,-53.39 73.41,-121.31 -118.99,-84.48 -938.73,-842.25 -989.87,-818.27 -40.97,19.21 -832.31,789.52 -936.27,890.26 -87.81,85.09 -190.37,139.32 -191.08,266.12 -0.86,152.31 0.55,305.32 0.55,457.75 0,429.78 -100.36,574.46 308.59,325.53 68.85,-41.91 561.16,-314.19 577.28,-337.13 72.6,-103.31 -52.33,-257.52 83.06,-374.14 42.72,-36.8 224.13,-209.04 242.02,-215.6z"/>
   <path class="fil2" d="M-29845.79 16105.02c-122.33,31.21 -405.96,224.59 -535.02,294.71 -355.26,193 -312.21,116.67 -311.66,526.55 0.37,279.39 0.03,558.81 0.02,838.21 -0.03,500.47 -86.65,431.86 406.4,431.79 131,-0.01 289.85,8.48 416.9,2.05 126.94,-6.42 82.69,-224.73 82.7,-332.17 0.03,-278.64 5.56,-563.18 -2.77,-840.97 -5.83,-194.38 189.99,-65.87 301.16,-113.7 66.96,-28.81 40.26,-311.07 40.21,-383.12 -0.05,-69.29 11.26,-355.71 -16.21,-398.68 -32.81,-51.31 -320.26,-40.35 -381.73,-24.67z"/>
   <path class="fil2" d="M-15942.79 17958.51c32.97,7.93 183.32,17.71 200.56,0.76l1.7 -393.19 372.72 -6.99 72.83 -156.6c-117.56,-76.5 -301.29,-40.79 -436.86,-52.87l0 -237.06c118.09,-27.69 440.47,7.1 489.51,-43.9 104.41,-206.4 -177.48,-176.24 -294.77,-176.24 -102.33,-0.01 -410.81,-57.77 -415.63,83.91 -3.81,112.31 -10.71,938.73 9.94,982.18z"/>
   <path class="fil2" d="M-14969.11 17985.35l-77.74 117.35 -183.63 14.05c-126.41,139.33 90.11,251.24 237.19,166.15 92.69,-53.61 62.68,-19.22 142.93,-102.6 12.27,-12.76 82.71,-146.99 87.14,-166.86 29.03,-129.97 269.04,-672.5 235.83,-750.66l0.68 -19.22c-29.68,-1.06 -186.11,-16.69 -199.83,1.34l-134.56 430.35c-34.83,32.27 -131.94,-307.7 -136.66,-331.57 -28.77,-145.57 -285.12,-170.65 -255.18,-17.05l193.28 510.76c33.85,53.24 17.8,18.8 35.98,82.53 20.15,70.64 26.2,27.23 54.57,65.43z"/>
   <path class="fil2" d="M-13428.9 17815.29l0 -67.73c72.12,-33.38 125.01,-80.15 211.67,-59.27 0,150.64 -66.28,162.03 -211.67,127zm-127.52 -362.51l310.72 -64.48c62.33,246.39 -87.07,78.41 -231.67,175.32 -103.51,69.37 -192.76,99.92 -172.05,262.42 16.53,129.76 116.84,196.54 243.41,194.54 136.07,-2.16 95.29,-34.4 176.69,-49.89 101,-19.22 62.09,66.06 173.96,33.07 128.27,-37.83 83.66,-259.51 83.67,-366.28 0.01,-128.06 17.56,-273.42 -90.41,-366.79 -130.96,-113.26 -714.24,-26.97 -494.32,182.09z"/>
   <path class="fil2" d="M-14243.28 17965.62c54.8,-80.96 2.98,-414.18 31.84,-492.61 21.42,-58.2 119.66,-89.2 176.46,-76.6 175.44,38.93 -120.33,622.55 207.46,594.76 133.1,-11.29 84.22,-348.39 85.44,-446.9 2.23,-180.21 -25.09,-266.17 -194.79,-331.71 -86.64,-33.46 -127.71,13.26 -201.28,29.76 -118.03,26.48 -87.5,-45.29 -213.45,-11.88 -116.8,30.97 -94.28,52.16 -93.28,170 0.76,90.14 -0.01,180.71 -0.02,270.91 0,50.86 -6.7,223.56 2.04,260.47 16.01,67.66 152.41,63.87 199.58,33.8z"/>
   <path class="fil2" d="M-10863.5 17527.42l-245.53 0c40.35,-150.02 245.53,-165.35 245.53,0zm110.07 262.47c-118,78.07 -425.77,45.72 -356.52,-93.84 54.43,-26.27 330.43,8.03 413.03,-10.52 89.66,-20.14 45.38,-256.14 -7.02,-326.13 -139.04,-185.75 -443.09,-163.43 -571.53,35.45 -71.2,110.26 -68.46,206.77 -53.99,335.99 17.3,154.41 43,176.47 165.93,257.48 72.76,47.95 290.08,63.91 368.04,21.98 156.19,-84.02 151.04,-84.92 42.06,-220.41z"/>
   <path class="fil2" d="M-12785.43 18010.02l135.46 0c64.31,-98.29 42.34,-420.04 42.34,-550.33 121.8,-29 248.91,-109.79 245.96,84.24 -1.24,81.36 -15.21,377.34 11.56,428.71 21.7,41.63 111.54,60.48 158.01,38.75 51.72,-24.2 44.69,-118.86 48.94,-171.9 9.79,-122.31 8.27,-293.33 -6.28,-414.66 -31.37,-261.57 -242.88,-193.1 -431.32,-166.03 -47.7,6.86 -82.08,-32.69 -182.68,-14.22 -112.86,20.72 -64.33,276.19 -64.33,367.51 0,116.55 -30.85,304.85 42.34,397.93z"/>
   <path class="fil2" d="M-11744.03 17248.02c-274.45,30.71 -358.22,461.81 -240.73,621.73 181.32,246.81 642.05,185.18 574.01,-23.84 -41.32,-126.93 -271.74,60.95 -346.05,-51.71 -66.59,-100.97 -78.53,-266.86 21.96,-342.17 103.04,-77.23 308.51,83.81 327.86,-88.15 18.17,-161.38 -244.36,-126.23 -337.05,-115.86z"/>
  </g>
  <g id="_2234634464848">
   <path class="fil2" d="M-25885.82 4368.7c-182.2,141.93 -372.55,358.03 -551.18,515.61 -94.75,83.58 -184.2,169.93 -280.46,252.85 -112.69,97.07 47.8,237.05 114.92,320.79 286.43,357.31 180.29,437.69 539.72,156.15 90.82,-71.14 525.24,-467.9 600.71,-452.08 35.11,65.88 16.62,3704.89 16.56,4295.15 -0.04,413.44 -66.08,380.59 338.59,381.12 245.42,0.32 519.92,83.95 499.31,-218.81 -30.62,-449.88 -8.16,-966.73 -8.16,-1423.85l-8.47 -4309.54c-174.54,-78.88 -1097.81,-33.86 -1354.67,-33.86 -70.06,0 -289.53,-8.79 -342.8,4.93 -188.33,48.5 335.61,320.77 435.93,511.54z"/>
   <path class="fil2" d="M-22096.55 5982.02l141.46 1162.39 -628.94 1.59c-195.8,3.03 -89.96,-51.57 -54.78,-148.37 24.4,-67.12 70.23,-143.99 107.22,-206.04 70.25,-117.82 133.91,-299.33 201.82,-416.25 33.04,-56.89 86.03,-144.68 107.14,-206.13 17.63,-51.3 33.91,-37.77 53.19,-99.21 25.1,-79.96 27.06,-31.06 72.89,-87.98zm-2053.6 2374.48c108.2,70.87 272.99,50.81 406.4,50.8 88.2,0 368.45,29.57 408.89,-48.31 23.46,-45.2 0,-38.66 31.94,-78.13 37.06,-45.81 20.74,-25.15 39.94,-78.59 0.76,-2.1 77.9,-145.04 80.32,-148.28 44.44,-59.46 120.16,-223.97 158.58,-298.62 76.65,0 1133.33,-7.64 1154.46,5.47 13.18,8.18 54.16,276.92 63.71,325.76 73.47,375.74 -85.1,364.01 415.87,353.18 417.14,-9.01 416.96,81.81 333.56,-349.26 -42.33,-218.78 -50.67,-445.69 -108.96,-661.32 -51.12,-189.1 -55.16,-472.32 -110.64,-668.3 -52.25,-184.55 -56.6,-475.76 -109.09,-661.37 -54.58,-193 -58.82,-481.84 -111.49,-667.45 -113,-398.14 40.31,-306.63 -460.66,-310.14 -525.35,-3.69 -402.43,-37.3 -553.28,226.23 -188.57,329.42 -359.9,672.1 -545.37,1003.7 -184.75,330.32 -367.46,670.09 -544.81,1004.59 -163.46,308.31 -363.42,715.16 -549.37,1000.04z"/>
   <path class="fil2" d="M-25995.94 6250.15c-38.62,0.22 -532.88,292.74 -610.24,336.12 -144.18,80.86 -102.27,230.6 -99.66,374.47 2.81,155.57 -1.24,316.57 -1.24,472.89 0,315.9 2.67,632.89 0.36,948.63 -2.41,327.99 79.52,618.33 -383.48,564.74 -166.41,-19.26 -175.65,-163.64 -175.69,-302.62l0.01 -1430.89c0.02,-210.89 33.58,-295.76 -182.22,-165.28 -63.27,38.26 -241.33,143.41 -290.19,183.96 -92.11,76.44 -241.06,100.6 -239.62,234.5 1.72,161.07 0.81,322.3 0.83,483.43 0.04,507.9 -76.67,1194.46 310.45,1586.08 362.78,367 967.97,391.74 1363.56,62.54 476.51,-396.56 374.92,-974.23 374.92,-1530.09 0,-316.09 0,-632.17 0,-948.26 0,-114.85 56.14,-870.91 -67.79,-870.22z"/>
   <path class="fil2" d="M-13820.8 6002.76l-1278.47 -16.93c47.94,-135.26 37.1,-253.92 77.64,-388.79 56.3,-187.28 32.97,-263.13 -183.67,-242.49 -529.44,50.43 -421.86,-148.5 -533.91,414.63 -104.77,526.53 -191.27,1062.52 -288.52,1591.13 -106.07,576.5 -58.2,1075.53 629.48,1160.74 554.3,68.68 960.02,-118.32 1227.68,-607.46 122.64,-224.14 144.69,-495.11 194.53,-741.27 18.53,-91.49 107.27,-299.07 -37.23,-321.25 -19.11,-2.93 -449.63,-18.71 -456.08,-17.36 -281.65,58.92 -24.59,1290.56 -774.75,1074.72 -255.94,-73.64 -110.34,-515.17 -72.62,-709.2 25.27,-130.04 50.03,-260.56 74.93,-390.72 85.15,-445 -104.43,-280.81 1082.32,-280.81 198.19,0 297.5,55.58 324.34,-149.79 16.98,-129.85 110.83,-231.59 14.33,-375.15z"/>
   <path class="fil2" d="M-10144.62 5989.99c-308.76,15.25 -542.11,37.82 -801.52,228.9 -237.3,174.79 -319.67,454.44 -258.02,740.5 128.82,597.73 1237.66,526.29 1271.16,806.35 39.14,327.22 -598.76,301.49 -727.24,215.74 -229.13,-152.92 -15.44,-294.74 -213.2,-303.27 -163.06,-7.04 -340.75,-18.45 -508.31,-6.87 -285.51,19.75 -35.67,548.28 123.62,670.96 245.1,188.77 516.95,225.79 815.54,225.94 339.26,0.16 535.98,-33.55 834.84,-198.16 226.9,-124.98 395.17,-381.45 392.78,-639.94 -3.14,-338.89 -72.02,-499.05 -409.9,-623.16 -259.23,-95.23 -534.28,-136.89 -790.6,-250.84 -160.68,-71.42 -166.38,-252.62 -40.49,-299.43 106.25,-39.51 334.41,-63.42 445.46,-37.91 286.63,65.85 149,126.1 242.74,273.87 44.19,69.67 384.53,37.69 477.49,40.68 225.44,7.25 222.17,-113.39 171.48,-317.66 -27.91,-112.49 -94.69,-255.47 -184.46,-331.47 -229.13,-193.98 -555.8,-208.33 -841.37,-194.23z"/>
   <path class="fil2" d="M-13500.64 6021.58c-112.71,46.3 -160.9,612.13 -189.92,746.43 -55.66,257.67 -99.23,531.94 -146.43,792.69 -49.47,273.28 -69.51,519 120.32,750.94 161.32,197.1 442.43,276.25 689.14,240.56 454.91,-65.8 617.83,-361.71 616.87,-242.67 -1.9,235.97 -32.81,195.24 246.36,197.99 123.23,1.21 333.86,50.83 396.8,-78.79 26.68,-54.94 132.18,-681.83 149.55,-790.38 40.58,-253.47 91.37,-551.87 147.48,-800.8 27.47,-121.88 51.62,-266.94 70.32,-391.11 15.98,-106.07 107.78,-311.74 8.67,-382.98 -48.15,-34.6 -363.38,-31 -445.93,-33.45 -185.77,-5.51 -205.85,98.39 -221.14,253.34 -23.42,237.27 -101.53,550.62 -146.46,793.33 -43.65,235.76 -60.82,533.06 -234.22,714.27 -147.28,153.9 -554.48,276.25 -676.58,90.24 -101.41,-154.48 30.88,-624.47 61.06,-816.04 38.47,-244.1 92.81,-553.62 149.93,-792.06 35.3,-147.35 73.77,-252.57 -122.26,-264.42 -62.74,-3.79 -433.17,-3.69 -473.56,12.91z"/>
   <path class="fil2" d="M-19432.87 8177.46c19.09,45.31 -86.42,180.66 -20.85,257.82l609.22 2.93c14.69,-10.21 74.83,-238.28 80.28,-275.32 8.55,-58.15 4.6,-108.19 13.31,-164.49 9,-58.13 31.9,-74.27 42.47,-135.33 10.43,-60.17 7.8,-106.38 13.88,-163.92 7.67,-72.56 30.54,-76.36 42.01,-135.79 10.31,-53.4 11.94,-109.21 14.73,-163.08 3.95,-76.55 27.29,-81.2 41.73,-144.53 27.15,-118.99 11.04,-165.08 53.81,-301.79 31.55,-100.85 11.74,-173.1 57.11,-306.96 43.87,-129.44 51.65,-495.84 109.3,-610.37 -89.83,-55.44 -563,-85.28 -648.23,-38.63 -74.16,40.6 -119.02,465.53 -144.14,567.07 -74.2,299.92 -101.94,916.17 -288.35,1142.52 -240.59,292.13 -888.16,365.84 -727.9,-255.15 94.07,-364.56 153.89,-827.49 220.37,-1205.28 14.2,-80.68 91.47,-208.12 -2.47,-258.04 -61.64,-32.77 -259.39,-19.18 -339.22,-19.9 -427.44,-3.84 -267.49,16.1 -360.69,350.54 -49.84,178.85 -61.74,421.01 -108.72,602.59 -49.68,192.01 -67.47,416.77 -109.16,610.28 -85.99,399.19 -3.65,774.08 415,927.91 571.46,209.99 1012.34,-283.2 1036.51,-283.08z"/>
   <path class="fil2" d="M-17259.74 5937.88c-460.23,39.98 -861.76,349.55 -1038.09,769.46 -180.27,429.26 -231.72,1082.97 48.37,1480.41 285.35,404.91 954.27,407.05 1353.03,191.92 197.24,-106.4 358.88,-231.26 490.95,-414.96 363.53,-505.6 93.95,-408.63 -121.84,-414.27 -514.89,-13.48 -272.71,21.59 -590.53,303.02 -129.28,114.49 -545.13,126.47 -595.11,-151.4 -46.96,-261.06 -15.56,-383.59 -2.3,-623.81 6.19,-112.08 40.31,-93.37 55.21,-173.4 18.96,-101.85 111.76,-207.22 181.05,-276.14 73.04,-72.65 236.34,-105.06 342.1,-115.81 109.34,-11.11 272.79,41.19 328.2,115.56 71.89,96.5 -27.86,276.25 178.13,279.16 569.91,8.05 609.3,69.27 542,-324.08 -97.67,-570.84 -678.55,-688.46 -1171.17,-645.66z"/>
   <path class="fil2" d="M-28213.94 6502.09c203.79,139.67 185.6,323.72 464.69,143.38 52.26,-33.77 318.54,-200.57 367.62,-216.59 65.17,-21.27 74.21,-53.39 73.41,-121.31 -118.99,-84.48 -938.73,-842.25 -989.87,-818.27 -40.97,19.21 -832.31,789.52 -936.27,890.26 -87.81,85.09 -190.37,139.32 -191.08,266.12 -0.86,152.31 0.55,305.32 0.55,457.75 0,429.78 -100.36,574.46 308.59,325.53 68.85,-41.91 561.16,-314.19 577.28,-337.13 72.6,-103.31 -52.33,-257.52 83.06,-374.14 42.72,-36.8 224.13,-209.04 242.02,-215.6z"/>
   <path class="fil2" d="M-28578.22 7746.9c-122.33,31.21 -405.96,224.59 -535.02,294.71 -355.26,193 -312.21,116.67 -311.66,526.55 0.37,279.39 0.03,558.81 0.02,838.21 -0.03,500.47 -86.65,431.86 406.4,431.79 131,-0.01 289.85,8.48 416.9,2.05 126.94,-6.42 82.69,-224.73 82.7,-332.17 0.03,-278.64 5.56,-563.18 -2.77,-840.97 -5.83,-194.38 189.99,-65.87 301.16,-113.7 66.96,-28.81 40.26,-311.07 40.21,-383.12 -0.05,-69.29 11.26,-355.71 -16.21,-398.68 -32.81,-51.31 -320.26,-40.35 -381.73,-24.67z"/>
   <path class="fil2" d="M-14675.22 9600.39c32.97,7.93 183.32,17.71 200.56,0.76l1.7 -393.19 372.72 -6.99 72.83 -156.6c-117.56,-76.5 -301.29,-40.79 -436.86,-52.87l0 -237.06c118.09,-27.69 440.47,7.1 489.51,-43.9 104.41,-206.4 -177.48,-176.24 -294.77,-176.24 -102.33,-0.01 -410.81,-57.77 -415.63,83.91 -3.81,112.31 -10.71,938.73 9.94,982.18z"/>
   <path class="fil2" d="M-13701.54 9627.23l-77.74 117.35 -183.63 14.05c-126.41,139.33 90.11,251.24 237.19,166.15 92.69,-53.61 62.68,-19.22 142.93,-102.6 12.27,-12.76 82.71,-146.99 87.14,-166.86 29.03,-129.97 269.04,-672.5 235.83,-750.66l0.68 -19.22c-29.68,-1.06 -186.11,-16.69 -199.83,1.34l-134.56 430.35c-34.83,32.27 -131.94,-307.7 -136.66,-331.57 -28.77,-145.57 -285.12,-170.65 -255.18,-17.05l193.28 510.76c33.85,53.24 17.8,18.8 35.98,82.53 20.15,70.64 26.2,27.23 54.57,65.43z"/>
   <path class="fil2" d="M-12161.33 9457.17l0 -67.73c72.12,-33.38 125.01,-80.15 211.67,-59.27 0,150.64 -66.28,162.03 -211.67,127zm-127.52 -362.51l310.72 -64.48c62.33,246.39 -87.07,78.41 -231.67,175.32 -103.51,69.37 -192.76,99.92 -172.05,262.42 16.53,129.76 116.84,196.54 243.41,194.54 136.07,-2.16 95.29,-34.4 176.69,-49.89 101,-19.22 62.09,66.06 173.96,33.07 128.27,-37.83 83.66,-259.51 83.67,-366.28 0.01,-128.06 17.56,-273.42 -90.41,-366.79 -130.96,-113.26 -714.24,-26.97 -494.32,182.09z"/>
   <path class="fil2" d="M-12975.71 9607.5c54.8,-80.96 2.98,-414.18 31.84,-492.61 21.42,-58.2 119.66,-89.2 176.46,-76.6 175.44,38.93 -120.33,622.55 207.46,594.76 133.1,-11.29 84.22,-348.39 85.44,-446.9 2.23,-180.21 -25.09,-266.17 -194.79,-331.71 -86.64,-33.46 -127.71,13.26 -201.28,29.76 -118.03,26.48 -87.5,-45.29 -213.45,-11.88 -116.8,30.97 -94.28,52.16 -93.28,170 0.76,90.14 -0.01,180.71 -0.02,270.91 0,50.86 -6.7,223.56 2.04,260.47 16.01,67.66 152.41,63.87 199.58,33.8z"/>
   <path class="fil2" d="M-9595.93 9169.3l-245.53 0c40.35,-150.02 245.53,-165.35 245.53,0zm110.07 262.47c-118,78.07 -425.77,45.72 -356.52,-93.84 54.43,-26.27 330.43,8.03 413.03,-10.52 89.66,-20.14 45.38,-256.14 -7.02,-326.13 -139.04,-185.75 -443.09,-163.43 -571.53,35.45 -71.2,110.26 -68.46,206.77 -53.99,335.99 17.3,154.41 43,176.47 165.93,257.48 72.76,47.95 290.08,63.91 368.04,21.98 156.19,-84.02 151.04,-84.92 42.06,-220.41z"/>
   <path class="fil2" d="M-11517.86 9651.9l135.46 0c64.31,-98.29 42.34,-420.04 42.34,-550.33 121.8,-29 248.91,-109.79 245.96,84.24 -1.24,81.36 -15.21,377.34 11.56,428.71 21.7,41.63 111.54,60.48 158.01,38.75 51.72,-24.2 44.69,-118.86 48.94,-171.9 9.79,-122.31 8.27,-293.33 -6.28,-414.66 -31.37,-261.57 -242.88,-193.1 -431.32,-166.03 -47.7,6.86 -82.08,-32.69 -182.68,-14.22 -112.86,20.72 -64.33,276.19 -64.33,367.51 0,116.55 -30.85,304.85 42.34,397.93z"/>
   <path class="fil2" d="M-10476.46 8889.9c-274.45,30.71 -358.22,461.81 -240.73,621.73 181.32,246.81 642.05,185.18 574.01,-23.84 -41.32,-126.93 -271.74,60.95 -346.05,-51.71 -66.59,-100.97 -78.53,-266.86 21.96,-342.17 103.04,-77.23 308.51,83.81 327.86,-88.15 18.17,-161.38 -244.36,-126.23 -337.05,-115.86z"/>
  </g>
  <g id="_2234634463600">
   <path class="fil2" d="M5016.86 9975.01c-150.8,117.47 -308.35,296.34 -456.2,426.77 -78.43,69.17 -152.46,140.64 -232.14,209.28 -93.27,80.34 39.57,196.2 95.12,265.51 237.08,295.74 149.23,362.27 446.72,129.24 75.17,-58.88 434.74,-387.27 497.2,-374.18 29.06,54.53 13.76,3066.5 13.71,3555.05 -0.03,342.2 -54.69,315.01 280.25,315.45 203.13,0.26 430.33,69.48 413.27,-181.11 -25.34,-372.36 -6.75,-800.15 -6.75,-1178.5l-7.01 -3566.96c-144.47,-65.29 -908.65,-28.03 -1121.25,-28.03 -57.99,0 -239.64,-7.27 -283.73,4.08 -155.88,40.15 277.78,265.5 360.81,423.4z"/>
   <path class="fil2" d="M8153.2 11310.34l117.08 962.09 -520.56 1.32c-162.06,2.51 -74.46,-42.68 -45.34,-122.8 20.19,-55.56 58.13,-119.18 88.74,-170.54 58.15,-97.52 110.84,-247.75 167.05,-344.53 27.34,-47.08 71.2,-119.75 88.67,-170.61 14.6,-42.46 28.07,-31.26 44.03,-82.11 20.77,-66.18 22.4,-25.71 60.33,-72.82zm-1699.74 1965.33c89.55,58.66 225.95,42.05 336.37,42.04 73,0 304.96,24.48 338.43,-39.98 19.42,-37.41 0,-32 26.44,-64.67 30.67,-37.92 17.17,-20.82 33.06,-65.05 0.63,-1.73 64.48,-120.04 66.48,-122.73 36.78,-49.21 99.45,-185.37 131.25,-247.16 63.45,0 938.05,-6.32 955.54,4.53 10.91,6.77 44.82,229.2 52.73,269.62 60.81,311 -70.44,301.29 344.21,292.33 345.26,-7.46 345.11,67.71 276.08,-289.08 -35.03,-181.08 -41.94,-368.89 -90.18,-547.37 -42.31,-156.51 -45.66,-390.93 -91.58,-553.14 -43.24,-152.75 -46.84,-393.78 -90.29,-547.41 -45.17,-159.74 -48.68,-398.81 -92.28,-552.44 -93.53,-329.54 33.37,-253.8 -381.28,-256.7 -434.83,-3.06 -333.09,-30.87 -457.95,187.25 -156.07,272.65 -297.88,556.29 -451.39,830.75 -152.92,273.4 -304.14,554.62 -450.93,831.49 -135.3,255.18 -300.8,591.93 -454.71,827.72z"/>
   <path class="fil2" d="M4925.72 11532.27c-31.97,0.18 -441.06,242.29 -505.09,278.2 -119.34,66.93 -84.65,190.86 -82.49,309.94 2.33,128.77 -1.02,262.02 -1.02,391.41 0,261.47 2.21,523.83 0.29,785.17 -1.99,271.47 65.82,511.78 -317.4,467.43 -137.73,-15.94 -145.38,-135.45 -145.41,-250.48l0 -1184.33c0.02,-174.55 27.8,-244.8 -150.82,-136.8 -52.37,31.67 -199.74,118.7 -240.19,152.26 -76.23,63.27 -199.52,83.27 -198.33,194.1 1.43,133.31 0.67,266.76 0.69,400.12 0.03,420.39 -63.46,988.65 256.96,1312.79 300.27,303.76 801.17,324.23 1128.6,51.76 394.4,-328.23 310.32,-806.36 310.32,-1266.44 0,-261.62 0,-523.24 0,-784.86 0,-95.06 46.46,-720.85 -56.11,-720.27z"/>
   <path class="fil2" d="M15002.94 11327.5l-1058.17 -14.01c39.68,-111.95 30.71,-210.17 64.26,-321.8 46.6,-155.01 27.29,-217.79 -152.02,-200.7 -438.21,41.74 -349.17,-122.91 -441.91,343.18 -86.72,435.81 -158.31,879.44 -238.81,1316.96 -87.79,477.17 -48.17,890.21 521.02,960.73 458.78,56.85 794.59,-97.93 1016.13,-502.78 101.51,-185.52 119.76,-409.8 161.01,-613.54 15.34,-75.73 88.79,-247.54 -30.81,-265.9 -15.82,-2.42 -372.16,-15.49 -377.49,-14.37 -233.12,48.77 -20.36,1068.18 -641.26,889.54 -211.83,-60.96 -91.32,-426.41 -60.1,-587 20.91,-107.63 41.41,-215.66 62.02,-323.4 70.47,-368.32 -86.44,-232.42 895.82,-232.42 164.04,0 246.24,46 268.45,-123.98 14.06,-107.47 91.74,-191.68 11.86,-310.51z"/>
   <path class="fil2" d="M18045.68 11316.93c-255.56,12.63 -448.7,31.31 -663.41,189.46 -196.41,144.67 -264.59,376.14 -213.56,612.91 106.62,494.73 1024.39,435.6 1052.12,667.4 32.4,270.84 -495.59,249.54 -601.93,178.57 -189.64,-126.57 -12.78,-243.96 -176.46,-251.02 -134.96,-5.82 -282.03,-15.27 -420.72,-5.68 -236.32,16.35 -29.53,453.8 102.32,555.34 202.86,156.25 427.87,186.89 675.01,187.01 280.8,0.13 443.62,-27.77 690.99,-164.01 187.8,-103.45 327.08,-315.72 325.1,-529.67 -2.6,-280.5 -59.61,-413.06 -339.27,-515.79 -214.56,-78.82 -442.22,-113.3 -654.37,-207.61 -133,-59.12 -137.71,-209.09 -33.52,-247.84 87.95,-32.7 276.79,-52.49 368.71,-31.38 237.24,54.51 123.32,104.38 200.91,226.68 36.57,57.67 318.27,31.2 395.21,33.67 186.6,6 183.89,-93.85 141.93,-262.92 -23.1,-93.11 -78.37,-211.45 -152.67,-274.35 -189.65,-160.56 -460.03,-172.44 -696.39,-160.77z"/>
   <path class="fil2" d="M15267.94 11343.08c-93.29,38.32 -133.18,506.65 -157.2,617.81 -46.07,213.27 -82.13,440.28 -121.2,656.1 -40.94,226.19 -57.53,429.57 99.59,621.55 133.52,163.13 366.2,228.65 570.39,199.11 376.53,-54.47 511.38,-299.39 510.58,-200.86 -1.57,195.31 -27.16,161.6 203.91,163.88 102,1 276.33,42.07 328.43,-65.22 22.08,-45.47 109.4,-564.34 123.78,-654.19 33.59,-209.79 75.62,-456.77 122.07,-662.81 22.73,-100.88 42.72,-220.94 58.2,-323.72 13.22,-87.79 89.21,-258.02 7.17,-316.99 -39.85,-28.63 -300.76,-25.65 -369.09,-27.68 -153.76,-4.56 -170.38,81.43 -183.03,209.68 -19.39,196.39 -84.04,455.75 -121.23,656.64 -36.12,195.13 -50.34,441.2 -193.86,591.19 -121.9,127.38 -458.93,228.65 -559.99,74.69 -83.94,-127.86 25.56,-516.87 50.53,-675.43 31.85,-202.04 76.82,-458.22 124.1,-655.58 29.22,-121.96 61.06,-209.05 -101.19,-218.85 -51.93,-3.14 -358.53,-3.06 -391.96,10.68z"/>
   <path class="fil2" d="M10357.9 13127.48c15.8,37.5 -71.53,149.53 -17.26,213.39l504.24 2.43c12.16,-8.45 61.94,-197.22 66.45,-227.88 7.08,-48.13 3.81,-89.55 11.02,-136.15 7.45,-48.11 26.4,-61.47 35.15,-112.01 8.63,-49.8 6.46,-88.05 11.49,-135.67 6.35,-60.06 25.28,-63.21 34.77,-112.4 8.53,-44.19 9.88,-90.39 12.19,-134.97 3.27,-63.36 22.59,-67.21 34.54,-119.63 22.47,-98.49 9.14,-136.64 44.54,-249.79 26.11,-83.47 9.72,-143.27 47.27,-254.07 36.31,-107.13 42.75,-410.4 90.46,-505.19 -74.35,-45.89 -465.98,-70.59 -536.53,-31.98 -61.38,33.61 -98.51,385.32 -119.3,469.36 -61.42,248.24 -84.38,758.3 -238.67,945.65 -199.13,241.79 -735.12,302.8 -602.47,-211.18 77.86,-301.74 127.37,-684.91 182.4,-997.6 11.75,-66.78 75.71,-172.26 -2.05,-213.58 -51.02,-27.12 -214.69,-15.87 -280.77,-16.47 -353.78,-3.18 -221.39,13.33 -298.53,290.14 -41.26,148.03 -51.11,348.47 -89.99,498.76 -41.12,158.92 -55.85,344.95 -90.35,505.12 -71.17,330.4 -3.02,640.7 343.49,768.02 472.99,173.81 837.9,-234.4 857.91,-234.3z"/>
   <path class="fil2" d="M12156.57 11273.8c-380.93,33.09 -713.27,289.32 -859.21,636.88 -149.21,355.29 -191.8,896.36 40.03,1225.32 236.18,335.13 789.84,336.91 1119.89,158.85 163.25,-88.07 297.04,-191.42 406.35,-343.46 300.89,-418.48 77.76,-338.22 -100.84,-342.89 -426.17,-11.16 -225.72,17.87 -488.78,250.81 -107,94.76 -451.2,104.67 -492.56,-125.31 -38.87,-216.08 -12.88,-317.5 -1.91,-516.33 5.13,-92.76 33.37,-77.28 45.7,-143.52 15.69,-84.3 92.5,-171.51 149.85,-228.55 60.46,-60.14 195.62,-86.96 283.16,-95.86 90.49,-9.19 225.78,34.09 271.64,95.65 59.51,79.87 -23.06,228.65 147.44,231.06 471.71,6.66 504.31,57.33 448.61,-268.24 -80.84,-472.48 -561.63,-569.83 -969.37,-534.41z"/>
   <path class="fil2" d="M3089.9 11740.79c168.68,115.61 153.62,267.94 384.62,118.68 43.26,-27.95 263.66,-166.01 304.28,-179.27 53.94,-17.61 61.42,-44.19 60.76,-100.41 -98.49,-69.92 -776.98,-697.12 -819.31,-677.27 -33.91,15.9 -688.89,653.48 -774.94,736.86 -72.67,70.42 -157.56,115.31 -158.15,220.26 -0.71,126.07 0.46,252.71 0.46,378.88 0,355.72 -83.07,475.47 255.41,269.43 56.99,-34.69 464.47,-260.05 477.81,-279.04 60.09,-85.5 -43.31,-213.14 68.75,-309.67 35.36,-30.46 185.51,-173.02 200.31,-178.45z"/>
   <path class="fil2" d="M2788.39 12771.11c-101.25,25.83 -336,185.89 -442.83,243.93 -294.04,159.74 -258.41,96.56 -257.95,435.82 0.3,231.24 0.02,462.52 0.01,693.77 -0.02,414.24 -71.72,357.45 336.38,357.39 108.42,-0.01 239.9,7.02 345.06,1.7 105.07,-5.32 68.44,-186.01 68.45,-274.94 0.02,-230.62 4.6,-466.13 -2.29,-696.06 -4.83,-160.88 157.25,-54.52 249.26,-94.11 55.43,-23.84 33.33,-257.46 33.28,-317.1 -0.04,-57.35 9.32,-294.42 -13.41,-329.98 -27.16,-42.47 -265.08,-33.4 -315.96,-20.42z"/>
   <path class="fil2" d="M14295.75 14305.22c27.29,6.56 151.73,14.66 166,0.63l1.41 -325.44 308.49 -5.78 60.28 -129.62c-97.3,-63.32 -249.37,-33.76 -361.58,-43.76l0 -196.21c97.74,-22.92 364.57,5.87 405.16,-36.34 86.42,-170.83 -146.9,-145.87 -243.97,-145.87 -84.7,-0.01 -340.03,-47.81 -344.02,69.45 -3.15,92.96 -8.86,776.98 8.23,812.94z"/>
   <path class="fil2" d="M15101.65 14327.44l-64.34 97.13 -151.99 11.62c-104.63,115.33 74.58,207.95 196.32,137.53 76.72,-44.38 51.88,-15.91 118.3,-84.93 10.16,-10.56 68.46,-121.66 72.13,-138.1 24.02,-107.58 222.68,-556.62 195.19,-621.32l0.56 -15.9c-24.56,-0.88 -154.04,-13.82 -165.39,1.1l-111.38 356.2c-28.83,26.71 -109.2,-254.68 -113.11,-274.44 -23.81,-120.48 -235.99,-141.24 -211.21,-14.11l159.98 422.75c28.01,44.07 14.73,15.56 29.78,68.31 16.67,58.47 21.68,22.54 45.16,54.16z"/>
   <path class="fil2" d="M16376.47 14186.68l0 -56.06c59.69,-27.63 103.47,-66.34 175.2,-49.06 0,124.69 -54.86,134.11 -175.2,105.12zm-105.55 -300.05l257.18 -53.37c51.59,203.94 -72.07,64.9 -191.75,145.12 -85.67,57.41 -159.55,82.7 -142.4,217.2 13.68,107.4 96.7,162.67 201.46,161.02 112.63,-1.79 78.87,-28.48 146.25,-41.3 83.59,-15.91 51.39,54.68 143.98,27.37 106.17,-31.31 69.25,-214.79 69.26,-303.16 0,-106 14.53,-226.31 -74.84,-303.59 -108.39,-93.74 -591.16,-22.32 -409.14,150.71z"/>
   <path class="fil2" d="M15702.42 14311.11c45.35,-67.01 2.46,-342.82 26.35,-407.73 17.73,-48.17 99.04,-73.83 146.05,-63.4 145.21,32.22 -99.59,515.28 171.72,492.27 110.16,-9.34 69.7,-288.35 70.71,-369.89 1.85,-149.16 -20.76,-220.31 -161.22,-274.55 -71.71,-27.7 -105.71,10.97 -166.6,24.63 -97.69,21.92 -72.42,-37.49 -176.67,-9.83 -96.67,25.63 -78.03,43.17 -77.21,140.7 0.63,74.61 -0.01,149.57 -0.01,224.23 0,42.1 -5.55,185.04 1.69,215.59 13.25,56 126.14,52.86 165.19,27.98z"/>
   <path class="fil2" d="M18499.82 13948.41l-203.22 0c33.4,-124.17 203.22,-136.86 203.22,0zm91.1 217.25c-97.66,64.61 -352.4,37.84 -295.08,-77.67 45.05,-21.75 273.49,6.64 341.86,-8.71 74.21,-16.67 37.56,-212.01 -5.81,-269.94 -115.09,-153.74 -366.74,-135.26 -473.05,29.35 -58.93,91.26 -56.67,171.14 -44.69,278.09 14.32,127.8 35.59,146.06 137.34,213.11 60.22,39.69 240.1,52.9 304.62,18.2 129.28,-69.55 125.02,-70.29 34.81,-182.43z"/>
   <path class="fil2" d="M16909.06 14347.86l112.12 0c53.23,-81.36 35.04,-347.67 35.04,-455.51 100.82,-24 206.02,-90.87 203.58,69.73 -1.02,67.34 -12.59,312.32 9.57,354.84 17.96,34.45 92.32,50.06 130.78,32.07 42.81,-20.03 36.99,-98.38 40.51,-142.28 8.1,-101.23 6.85,-242.79 -5.2,-343.21 -25.96,-216.5 -201.03,-159.83 -357,-137.42 -39.48,5.68 -67.93,-27.06 -151.2,-11.77 -93.41,17.15 -53.24,228.6 -53.24,304.18 0,96.47 -25.54,252.32 35.04,329.37z"/>
   <path class="fil2" d="M17771.02 13717.16c-227.16,25.42 -296.5,382.23 -199.25,514.6 150.07,204.28 531.41,153.27 475.1,-19.74 -34.2,-105.05 -224.92,50.45 -286.42,-42.8 -55.12,-83.57 -65,-220.87 18.17,-283.21 85.29,-63.92 255.35,69.37 271.37,-72.96 15.04,-133.57 -202.26,-104.48 -278.97,-95.89z"/>
  </g>
 </g>
</svg>
