<?xml version="1.0" encoding="UTF-8"?>
<!DOCTYPE svg PUBLIC "-//W3C//DTD SVG 1.1//EN" "http://www.w3.org/Graphics/SVG/1.1/DTD/svg11.dtd">
<!-- Creator: CorelDRAW -->
<svg xmlns="http://www.w3.org/2000/svg" xml:space="preserve" width="210mm" height="297mm" version="1.1" style="shape-rendering:geometricPrecision; text-rendering:geometricPrecision; image-rendering:optimizeQuality; fill-rule:evenodd; clip-rule:evenodd"
viewBox="0 0 21000 29700"
 xmlns:xlink="http://www.w3.org/1999/xlink"
 xmlns:xodm="http://www.corel.com/coreldraw/odm/2003">
 <defs>
  <style type="text/css">
   <![CDATA[
    .str0 {stroke:black;stroke-width:20;stroke-miterlimit:22.9256}
    .fil4 {fill:black}
    .fil1 {fill:blue}
    .fil5 {fill:#4FBFE8}
    .fil3 {fill:#4FC0E8}
    .fil0 {fill:red}
    .fil2 {fill:white}
   ]]>
  </style>
 </defs>
 <g id="Camada_x0020_1">
  <metadata id="CorelCorpID_0Corel-Layer"/>
  <rect class="fil0 str0" x="31513.98" y="7744.49" width="32442.13" height="31862.8"/>
  <rect class="fil1 str0" x="-32779.68" y="-308.11" width="24594.85" height="30535.37"/>
  <image id="Padrão_x0020_vertical_x0020_-_x0020_ByAvanced_x0020__x0028_1_x0029_.png" x="-37693.19" y="-7605.52" width="28575.04" height="35720.92" xlink:href="finanças svg so o simbolo azul_Images\finanças svg so o simbolo azul_ImgID1.png"/>
  <g id="_2234746171136">
   <path class="fil2" d="M-27153.39 12726.82c-182.2,141.93 -372.55,358.03 -551.18,515.61 -94.75,83.58 -184.2,169.93 -280.46,252.85 -112.69,97.07 47.8,237.05 114.92,320.79 286.43,357.31 180.29,437.69 539.72,156.15 90.82,-71.14 525.24,-467.9 600.71,-452.08 35.11,65.88 16.62,3704.89 16.56,4295.15 -0.04,413.44 -66.08,380.59 338.59,381.12 245.42,0.32 519.92,83.95 499.31,-218.81 -30.62,-449.88 -8.16,-966.73 -8.16,-1423.85l-8.47 -4309.54c-174.54,-78.88 -1097.81,-33.86 -1354.67,-33.86 -70.06,0 -289.53,-8.79 -342.8,4.93 -188.33,48.5 335.61,320.77 435.93,511.54z"/>
   <path class="fil2" d="M-23364.12 14340.14l141.46 1162.39 -628.94 1.59c-195.8,3.03 -89.96,-51.57 -54.78,-148.37 24.4,-67.12 70.23,-143.99 107.22,-206.04 70.25,-117.82 133.91,-299.33 201.82,-416.25 33.04,-56.89 86.03,-144.68 107.14,-206.13 17.63,-51.3 33.91,-37.77 53.19,-99.21 25.1,-79.96 27.06,-31.06 72.89,-87.98zm-2053.6 2374.48c108.2,70.87 272.99,50.81 406.4,50.8 88.2,0 368.45,29.57 408.89,-48.31 23.46,-45.2 0,-38.66 31.94,-78.13 37.06,-45.81 20.74,-25.15 39.94,-78.59 0.76,-2.1 77.9,-145.04 80.32,-148.28 44.44,-59.46 120.16,-223.97 158.58,-298.62 76.65,0 1133.33,-7.64 1154.46,5.47 13.18,8.18 54.16,276.92 63.71,325.76 73.47,375.74 -85.1,364.01 415.87,353.18 417.14,-9.01 416.96,81.81 333.56,-349.26 -42.33,-218.78 -50.67,-445.69 -108.96,-661.32 -51.12,-189.1 -55.16,-472.32 -110.64,-668.3 -52.25,-184.55 -56.6,-475.76 -109.09,-661.37 -54.58,-193 -58.82,-481.84 -111.49,-667.45 -113,-398.14 40.31,-306.63 -460.66,-310.14 -525.35,-3.69 -402.43,-37.3 -553.28,226.23 -188.57,329.42 -359.9,672.1 -545.37,1003.7 -184.75,330.32 -367.46,670.09 -544.81,1004.59 -163.46,308.31 -363.42,715.16 -549.37,1000.04z"/>
   <path class="fil2" d="M-27263.51 14608.27c-38.62,0.22 -532.88,292.74 -610.24,336.12 -144.18,80.86 -102.27,230.6 -99.66,374.47 2.81,155.57 -1.24,316.57 -1.24,472.89 0,315.9 2.67,632.89 0.36,948.63 -2.41,327.99 79.52,618.33 -383.48,564.74 -166.41,-19.26 -175.65,-163.64 -175.69,-302.62l0.01 -1430.89c0.02,-210.89 33.58,-295.76 -182.22,-165.28 -63.27,38.26 -241.33,143.41 -290.19,183.96 -92.11,76.44 -241.06,100.6 -239.62,234.5 1.72,161.07 0.81,322.3 0.83,483.43 0.04,507.9 -76.67,1194.46 310.45,1586.08 362.78,367 967.97,391.74 1363.56,62.54 476.51,-396.56 374.92,-974.23 374.92,-1530.09 0,-316.09 0,-632.17 0,-948.26 0,-114.85 56.14,-870.91 -67.79,-870.22z"/>
   <path class="fil2" d="M-15088.37 14360.88l-1278.47 -16.93c47.94,-135.26 37.1,-253.92 77.64,-388.79 56.3,-187.28 32.97,-263.13 -183.67,-242.49 -529.44,50.43 -421.86,-148.5 -533.91,414.63 -104.77,526.53 -191.27,1062.52 -288.52,1591.13 -106.07,576.5 -58.2,1075.53 629.48,1160.74 554.3,68.68 960.02,-118.32 1227.68,-607.46 122.64,-224.14 144.69,-495.11 194.53,-741.27 18.53,-91.49 107.27,-299.07 -37.23,-321.25 -19.11,-2.93 -449.63,-18.71 -456.08,-17.36 -281.65,58.92 -24.59,1290.56 -774.75,1074.72 -255.94,-73.64 -110.34,-515.17 -72.62,-709.2 25.27,-130.04 50.03,-260.56 74.93,-390.72 85.15,-445 -104.43,-280.81 1082.32,-280.81 198.19,0 297.5,55.58 324.34,-149.79 16.98,-129.85 110.83,-231.59 14.33,-375.15z"/>
   <path class="fil2" d="M-11412.19 14348.11c-308.76,15.25 -542.11,37.82 -801.52,228.9 -237.3,174.79 -319.67,454.44 -258.02,740.5 128.82,597.73 1237.66,526.29 1271.16,806.35 39.14,327.22 -598.76,301.49 -727.24,215.74 -229.13,-152.92 -15.44,-294.74 -213.2,-303.27 -163.06,-7.04 -340.75,-18.45 -508.31,-6.87 -285.51,19.75 -35.67,548.28 123.62,670.96 245.1,188.77 516.95,225.79 815.54,225.94 339.26,0.16 535.98,-33.55 834.84,-198.16 226.9,-124.98 395.17,-381.45 392.78,-639.94 -3.14,-338.89 -72.02,-499.05 -409.9,-623.16 -259.23,-95.23 -534.28,-136.89 -790.6,-250.84 -160.68,-71.42 -166.38,-252.62 -40.49,-299.43 106.25,-39.51 334.41,-63.42 445.46,-37.91 286.63,65.85 149,126.1 242.74,273.87 44.19,69.67 384.53,37.69 477.49,40.68 225.44,7.25 222.17,-113.39 171.48,-317.66 -27.91,-112.49 -94.69,-255.47 -184.46,-331.47 -229.13,-193.98 -555.8,-208.33 -841.37,-194.23z"/>
   <path class="fil2" d="M-14768.21 14379.7c-112.71,46.3 -160.9,612.13 -189.92,746.43 -55.66,257.67 -99.23,531.94 -146.43,792.69 -49.47,273.28 -69.51,519 120.32,750.94 161.32,197.1 442.43,276.25 689.14,240.56 454.91,-65.8 617.83,-361.71 616.87,-242.67 -1.9,235.97 -32.81,195.24 246.36,197.99 123.23,1.21 333.86,50.83 396.8,-78.79 26.68,-54.94 132.18,-681.83 149.55,-790.38 40.58,-253.47 91.37,-551.87 147.48,-800.8 27.47,-121.88 51.62,-266.94 70.32,-391.11 15.98,-106.07 107.78,-311.74 8.67,-382.98 -48.15,-34.6 -363.38,-31 -445.93,-33.45 -185.77,-5.51 -205.85,98.39 -221.14,253.34 -23.42,237.27 -101.53,550.62 -146.46,793.33 -43.65,235.76 -60.82,533.06 -234.22,714.27 -147.28,153.9 -554.48,276.25 -676.58,90.24 -101.41,-154.48 30.88,-624.47 61.06,-816.04 38.47,-244.1 92.81,-553.62 149.93,-792.06 35.3,-147.35 73.77,-252.57 -122.26,-264.42 -62.74,-3.79 -433.17,-3.69 -473.56,12.91z"/>
   <path class="fil2" d="M-20700.44 16535.58c19.09,45.31 -86.42,180.66 -20.85,257.82l609.22 2.93c14.69,-10.21 74.83,-238.28 80.28,-275.32 8.55,-58.15 4.6,-108.19 13.31,-164.49 9,-58.13 31.9,-74.27 42.47,-135.33 10.43,-60.17 7.8,-106.38 13.88,-163.92 7.67,-72.56 30.54,-76.36 42.01,-135.79 10.31,-53.4 11.94,-109.21 14.73,-163.08 3.95,-76.55 27.29,-81.2 41.73,-144.53 27.15,-118.99 11.04,-165.08 53.81,-301.79 31.55,-100.85 11.74,-173.1 57.11,-306.96 43.87,-129.44 51.65,-495.84 109.3,-610.37 -89.83,-55.44 -563,-85.28 -648.23,-38.63 -74.16,40.6 -119.02,465.53 -144.14,567.07 -74.2,299.92 -101.94,916.17 -288.35,1142.52 -240.59,292.13 -888.16,365.84 -727.9,-255.15 94.07,-364.56 153.89,-827.49 220.37,-1205.28 14.2,-80.68 91.47,-208.12 -2.47,-258.04 -61.64,-32.77 -259.39,-19.18 -339.22,-19.9 -427.44,-3.84 -267.49,16.1 -360.69,350.54 -49.84,178.85 -61.74,421.01 -108.72,602.59 -49.68,192.01 -67.47,416.77 -109.16,610.28 -85.99,399.19 -3.65,774.08 415,927.91 571.46,209.99 1012.34,-283.2 1036.51,-283.08z"/>
   <path class="fil2" d="M-18527.31 14296c-460.23,39.98 -861.76,349.55 -1038.09,769.46 -180.27,429.26 -231.72,1082.97 48.37,1480.41 285.35,404.91 954.27,407.05 1353.03,191.92 197.24,-106.4 358.88,-231.26 490.95,-414.96 363.53,-505.6 93.95,-408.63 -121.84,-414.27 -514.89,-13.48 -272.71,21.59 -590.53,303.02 -129.28,114.49 -545.13,126.47 -595.11,-151.4 -46.96,-261.06 -15.56,-383.59 -2.3,-623.81 6.19,-112.08 40.31,-93.37 55.21,-173.4 18.96,-101.85 111.76,-207.22 181.05,-276.14 73.04,-72.65 236.34,-105.06 342.1,-115.81 109.34,-11.11 272.79,41.19 328.2,115.56 71.89,96.5 -27.86,276.25 178.13,279.16 569.91,8.05 609.3,69.27 542,-324.08 -97.67,-570.84 -678.55,-688.46 -1171.17,-645.66z"/>
   <path class="fil2" d="M-29481.51 14860.21c203.79,139.67 185.6,323.72 464.69,143.38 52.26,-33.77 318.54,-200.57 367.62,-216.59 65.17,-21.27 74.21,-53.39 73.41,-121.31 -118.99,-84.48 -938.73,-842.25 -989.87,-818.27 -40.97,19.21 -832.31,789.52 -936.27,890.26 -87.81,85.09 -190.37,139.32 -191.08,266.12 -0.86,152.31 0.55,305.32 0.55,457.75 0,429.78 -100.36,574.46 308.59,325.53 68.85,-41.91 561.16,-314.19 577.28,-337.13 72.6,-103.31 -52.33,-257.52 83.06,-374.14 42.72,-36.8 224.13,-209.04 242.02,-215.6z"/>
   <path class="fil2" d="M-29845.79 16105.02c-122.33,31.21 -405.96,224.59 -535.02,294.71 -355.26,193 -312.21,116.67 -311.66,526.55 0.37,279.39 0.03,558.81 0.02,838.21 -0.03,500.47 -86.65,431.86 406.4,431.79 131,-0.01 289.85,8.48 416.9,2.05 126.94,-6.42 82.69,-224.73 82.7,-332.17 0.03,-278.64 5.56,-563.18 -2.77,-840.97 -5.83,-194.38 189.99,-65.87 301.16,-113.7 66.96,-28.81 40.26,-311.07 40.21,-383.12 -0.05,-69.29 11.26,-355.71 -16.21,-398.68 -32.81,-51.31 -320.26,-40.35 -381.73,-24.67z"/>
   <path class="fil2" d="M-15942.79 17958.51c32.97,7.93 183.32,17.71 200.56,0.76l1.7 -393.19 372.72 -6.99 72.83 -156.6c-117.56,-76.5 -301.29,-40.79 -436.86,-52.87l0 -237.06c118.09,-27.69 440.47,7.1 489.51,-43.9 104.41,-206.4 -177.48,-176.24 -294.77,-176.24 -102.33,-0.01 -410.81,-57.77 -415.63,83.91 -3.81,112.31 -10.71,938.73 9.94,982.18z"/>
   <path class="fil2" d="M-14969.11 17985.35l-77.74 117.35 -183.63 14.05c-126.41,139.33 90.11,251.24 237.19,166.15 92.69,-53.61 62.68,-19.22 142.93,-102.6 12.27,-12.76 82.71,-146.99 87.14,-166.86 29.03,-129.97 269.04,-672.5 235.83,-750.66l0.68 -19.22c-29.68,-1.06 -186.11,-16.69 -199.83,1.34l-134.56 430.35c-34.83,32.27 -131.94,-307.7 -136.66,-331.57 -28.77,-145.57 -285.12,-170.65 -255.18,-17.05l193.28 510.76c33.85,53.24 17.8,18.8 35.98,82.53 20.15,70.64 26.2,27.23 54.57,65.43z"/>
   <path class="fil2" d="M-13428.9 17815.29l0 -67.73c72.12,-33.38 125.01,-80.15 211.67,-59.27 0,150.64 -66.28,162.03 -211.67,127zm-127.52 -362.51l310.72 -64.48c62.33,246.39 -87.07,78.41 -231.67,175.32 -103.51,69.37 -192.76,99.92 -172.05,262.42 16.53,129.76 116.84,196.54 243.41,194.54 136.07,-2.16 95.29,-34.4 176.69,-49.89 101,-19.22 62.09,66.06 173.96,33.07 128.27,-37.83 83.66,-259.51 83.67,-366.28 0.01,-128.06 17.56,-273.42 -90.41,-366.79 -130.96,-113.26 -714.24,-26.97 -494.32,182.09z"/>
   <path class="fil2" d="M-14243.28 17965.62c54.8,-80.96 2.98,-414.18 31.84,-492.61 21.42,-58.2 119.66,-89.2 176.46,-76.6 175.44,38.93 -120.33,622.55 207.46,594.76 133.1,-11.29 84.22,-348.39 85.44,-446.9 2.23,-180.21 -25.09,-266.17 -194.79,-331.71 -86.64,-33.46 -127.71,13.26 -201.28,29.76 -118.03,26.48 -87.5,-45.29 -213.45,-11.88 -116.8,30.97 -94.28,52.16 -93.28,170 0.76,90.14 -0.01,180.71 -0.02,270.91 0,50.86 -6.7,223.56 2.04,260.47 16.01,67.66 152.41,63.87 199.58,33.8z"/>
   <path class="fil2" d="M-10863.5 17527.42l-245.53 0c40.35,-150.02 245.53,-165.35 245.53,0zm110.07 262.47c-118,78.07 -425.77,45.72 -356.52,-93.84 54.43,-26.27 330.43,8.03 413.03,-10.52 89.66,-20.14 45.38,-256.14 -7.02,-326.13 -139.04,-185.75 -443.09,-163.43 -571.53,35.45 -71.2,110.26 -68.46,206.77 -53.99,335.99 17.3,154.41 43,176.47 165.93,257.48 72.76,47.95 290.08,63.91 368.04,21.98 156.19,-84.02 151.04,-84.92 42.06,-220.41z"/>
   <path class="fil2" d="M-12785.43 18010.02l135.46 0c64.31,-98.29 42.34,-420.04 42.34,-550.33 121.8,-29 248.91,-109.79 245.96,84.24 -1.24,81.36 -15.21,377.34 11.56,428.71 21.7,41.63 111.54,60.48 158.01,38.75 51.72,-24.2 44.69,-118.86 48.94,-171.9 9.79,-122.31 8.27,-293.33 -6.28,-414.66 -31.37,-261.57 -242.88,-193.1 -431.32,-166.03 -47.7,6.86 -82.08,-32.69 -182.68,-14.22 -112.86,20.72 -64.33,276.19 -64.33,367.51 0,116.55 -30.85,304.85 42.34,397.93z"/>
   <path class="fil2" d="M-11744.03 17248.02c-274.45,30.71 -358.22,461.81 -240.73,621.73 181.32,246.81 642.05,185.18 574.01,-23.84 -41.32,-126.93 -271.74,60.95 -346.05,-51.71 -66.59,-100.97 -78.53,-266.86 21.96,-342.17 103.04,-77.23 308.51,83.81 327.86,-88.15 18.17,-161.38 -244.36,-126.23 -337.05,-115.86z"/>
  </g>
  <g id="_2234746163024">
   <path class="fil2" d="M-25885.82 4368.7c-182.2,141.93 -372.55,358.03 -551.18,515.61 -94.75,83.58 -184.2,169.93 -280.46,252.85 -112.69,97.07 47.8,237.05 114.92,320.79 286.43,357.31 180.29,437.69 539.72,156.15 90.82,-71.14 525.24,-467.9 600.71,-452.08 35.11,65.88 16.62,3704.89 16.56,4295.15 -0.04,413.44 -66.08,380.59 338.59,381.12 245.42,0.32 519.92,83.95 499.31,-218.81 -30.62,-449.88 -8.16,-966.73 -8.16,-1423.85l-8.47 -4309.54c-174.54,-78.88 -1097.81,-33.86 -1354.67,-33.86 -70.06,0 -289.53,-8.79 -342.8,4.93 -188.33,48.5 335.61,320.77 435.93,511.54z"/>
   <path class="fil2" d="M-22096.55 5982.02l141.46 1162.39 -628.94 1.59c-195.8,3.03 -89.96,-51.57 -54.78,-148.37 24.4,-67.12 70.23,-143.99 107.22,-206.04 70.25,-117.82 133.91,-299.33 201.82,-416.25 33.04,-56.89 86.03,-144.68 107.14,-206.13 17.63,-51.3 33.91,-37.77 53.19,-99.21 25.1,-79.96 27.06,-31.06 72.89,-87.98zm-2053.6 2374.48c108.2,70.87 272.99,50.81 406.4,50.8 88.2,0 368.45,29.57 408.89,-48.31 23.46,-45.2 0,-38.66 31.94,-78.13 37.06,-45.81 20.74,-25.15 39.94,-78.59 0.76,-2.1 77.9,-145.04 80.32,-148.28 44.44,-59.46 120.16,-223.97 158.58,-298.62 76.65,0 1133.33,-7.64 1154.46,5.47 13.18,8.18 54.16,276.92 63.71,325.76 73.47,375.74 -85.1,364.01 415.87,353.18 417.14,-9.01 416.96,81.81 333.56,-349.26 -42.33,-218.78 -50.67,-445.69 -108.96,-661.32 -51.12,-189.1 -55.16,-472.32 -110.64,-668.3 -52.25,-184.55 -56.6,-475.76 -109.09,-661.37 -54.58,-193 -58.82,-481.84 -111.49,-667.45 -113,-398.14 40.31,-306.63 -460.66,-310.14 -525.35,-3.69 -402.43,-37.3 -553.28,226.23 -188.57,329.42 -359.9,672.1 -545.37,1003.7 -184.75,330.32 -367.46,670.09 -544.81,1004.59 -163.46,308.31 -363.42,715.16 -549.37,1000.04z"/>
   <path class="fil2" d="M-25995.94 6250.15c-38.62,0.22 -532.88,292.74 -610.24,336.12 -144.18,80.86 -102.27,230.6 -99.66,374.47 2.81,155.57 -1.24,316.57 -1.24,472.89 0,315.9 2.67,632.89 0.36,948.63 -2.41,327.99 79.52,618.33 -383.48,564.74 -166.41,-19.26 -175.65,-163.64 -175.69,-302.62l0.01 -1430.89c0.02,-210.89 33.58,-295.76 -182.22,-165.28 -63.27,38.26 -241.33,143.41 -290.19,183.96 -92.11,76.44 -241.06,100.6 -239.62,234.5 1.72,161.07 0.81,322.3 0.83,483.43 0.04,507.9 -76.67,1194.46 310.45,1586.08 362.78,367 967.97,391.74 1363.56,62.54 476.51,-396.56 374.92,-974.23 374.92,-1530.09 0,-316.09 0,-632.17 0,-948.26 0,-114.85 56.14,-870.91 -67.79,-870.22z"/>
   <path class="fil2" d="M-13820.8 6002.76l-1278.47 -16.93c47.94,-135.26 37.1,-253.92 77.64,-388.79 56.3,-187.28 32.97,-263.13 -183.67,-242.49 -529.44,50.43 -421.86,-148.5 -533.91,414.63 -104.77,526.53 -191.27,1062.52 -288.52,1591.13 -106.07,576.5 -58.2,1075.53 629.48,1160.74 554.3,68.68 960.02,-118.32 1227.68,-607.46 122.64,-224.14 144.69,-495.11 194.53,-741.27 18.53,-91.49 107.27,-299.07 -37.23,-321.25 -19.11,-2.93 -449.63,-18.71 -456.08,-17.36 -281.65,58.92 -24.59,1290.56 -774.75,1074.72 -255.94,-73.64 -110.34,-515.17 -72.62,-709.2 25.27,-130.04 50.03,-260.56 74.93,-390.72 85.15,-445 -104.43,-280.81 1082.32,-280.81 198.19,0 297.5,55.58 324.34,-149.79 16.98,-129.85 110.83,-231.59 14.33,-375.15z"/>
   <path class="fil2" d="M-10144.62 5989.99c-308.76,15.25 -542.11,37.82 -801.52,228.9 -237.3,174.79 -319.67,454.44 -258.02,740.5 128.82,597.73 1237.66,526.29 1271.16,806.35 39.14,327.22 -598.76,301.49 -727.24,215.74 -229.13,-152.92 -15.44,-294.74 -213.2,-303.27 -163.06,-7.04 -340.75,-18.45 -508.31,-6.87 -285.51,19.75 -35.67,548.28 123.62,670.96 245.1,188.77 516.95,225.79 815.54,225.94 339.26,0.16 535.98,-33.55 834.84,-198.16 226.9,-124.98 395.17,-381.45 392.78,-639.94 -3.14,-338.89 -72.02,-499.05 -409.9,-623.16 -259.23,-95.23 -534.28,-136.89 -790.6,-250.84 -160.68,-71.42 -166.38,-252.62 -40.49,-299.43 106.25,-39.51 334.41,-63.42 445.46,-37.91 286.63,65.85 149,126.1 242.74,273.87 44.19,69.67 384.53,37.69 477.49,40.68 225.44,7.25 222.17,-113.39 171.48,-317.66 -27.91,-112.49 -94.69,-255.47 -184.46,-331.47 -229.13,-193.98 -555.8,-208.33 -841.37,-194.23z"/>
   <path class="fil2" d="M-13500.64 6021.58c-112.71,46.3 -160.9,612.13 -189.92,746.43 -55.66,257.67 -99.23,531.94 -146.43,792.69 -49.47,273.28 -69.51,519 120.32,750.94 161.32,197.1 442.43,276.25 689.14,240.56 454.91,-65.8 617.83,-361.71 616.87,-242.67 -1.9,235.97 -32.81,195.24 246.36,197.99 123.23,1.21 333.86,50.83 396.8,-78.79 26.68,-54.94 132.18,-681.83 149.55,-790.38 40.58,-253.47 91.37,-551.87 147.48,-800.8 27.47,-121.88 51.62,-266.94 70.32,-391.11 15.98,-106.07 107.78,-311.74 8.67,-382.98 -48.15,-34.6 -363.38,-31 -445.93,-33.45 -185.77,-5.51 -205.85,98.39 -221.14,253.34 -23.42,237.27 -101.53,550.62 -146.46,793.33 -43.65,235.76 -60.82,533.06 -234.22,714.27 -147.28,153.9 -554.48,276.25 -676.58,90.24 -101.41,-154.48 30.88,-624.47 61.06,-816.04 38.47,-244.1 92.81,-553.62 149.93,-792.06 35.3,-147.35 73.77,-252.57 -122.26,-264.42 -62.74,-3.79 -433.17,-3.69 -473.56,12.91z"/>
   <path class="fil2" d="M-19432.87 8177.46c19.09,45.31 -86.42,180.66 -20.85,257.82l609.22 2.93c14.69,-10.21 74.83,-238.28 80.28,-275.32 8.55,-58.15 4.6,-108.19 13.31,-164.49 9,-58.13 31.9,-74.27 42.47,-135.33 10.43,-60.17 7.8,-106.38 13.88,-163.92 7.67,-72.56 30.54,-76.36 42.01,-135.79 10.31,-53.4 11.94,-109.21 14.73,-163.08 3.95,-76.55 27.29,-81.2 41.73,-144.53 27.15,-118.99 11.04,-165.08 53.81,-301.79 31.55,-100.85 11.74,-173.1 57.11,-306.96 43.87,-129.44 51.65,-495.84 109.3,-610.37 -89.83,-55.44 -563,-85.28 -648.23,-38.63 -74.16,40.6 -119.02,465.53 -144.14,567.07 -74.2,299.92 -101.94,916.17 -288.35,1142.52 -240.59,292.13 -888.16,365.84 -727.9,-255.15 94.07,-364.56 153.89,-827.49 220.37,-1205.28 14.2,-80.68 91.47,-208.12 -2.47,-258.04 -61.64,-32.77 -259.39,-19.18 -339.22,-19.9 -427.44,-3.84 -267.49,16.1 -360.69,350.54 -49.84,178.85 -61.74,421.01 -108.72,602.59 -49.68,192.01 -67.47,416.77 -109.16,610.28 -85.99,399.19 -3.65,774.08 415,927.91 571.46,209.99 1012.34,-283.2 1036.51,-283.08z"/>
   <path class="fil2" d="M-17259.74 5937.88c-460.23,39.98 -861.76,349.55 -1038.09,769.46 -180.27,429.26 -231.72,1082.97 48.37,1480.41 285.35,404.91 954.27,407.05 1353.03,191.92 197.24,-106.4 358.88,-231.26 490.95,-414.96 363.53,-505.6 93.95,-408.63 -121.84,-414.27 -514.89,-13.48 -272.71,21.59 -590.53,303.02 -129.28,114.49 -545.13,126.47 -595.11,-151.4 -46.96,-261.06 -15.56,-383.59 -2.3,-623.81 6.19,-112.08 40.31,-93.37 55.21,-173.4 18.96,-101.85 111.76,-207.22 181.05,-276.14 73.04,-72.65 236.34,-105.06 342.1,-115.81 109.34,-11.11 272.79,41.19 328.2,115.56 71.89,96.5 -27.86,276.25 178.13,279.16 569.91,8.05 609.3,69.27 542,-324.08 -97.67,-570.84 -678.55,-688.46 -1171.17,-645.66z"/>
   <path class="fil2" d="M-28213.94 6502.09c203.79,139.67 185.6,323.72 464.69,143.38 52.26,-33.77 318.54,-200.57 367.62,-216.59 65.17,-21.27 74.21,-53.39 73.41,-121.31 -118.99,-84.48 -938.73,-842.25 -989.87,-818.27 -40.97,19.21 -832.31,789.52 -936.27,890.26 -87.81,85.09 -190.37,139.32 -191.08,266.12 -0.86,152.31 0.55,305.32 0.55,457.75 0,429.78 -100.36,574.46 308.59,325.53 68.85,-41.91 561.16,-314.19 577.28,-337.13 72.6,-103.31 -52.33,-257.52 83.06,-374.14 42.72,-36.8 224.13,-209.04 242.02,-215.6z"/>
   <path class="fil2" d="M-28578.22 7746.9c-122.33,31.21 -405.96,224.59 -535.02,294.71 -355.26,193 -312.21,116.67 -311.66,526.55 0.37,279.39 0.03,558.81 0.02,838.21 -0.03,500.47 -86.65,431.86 406.4,431.79 131,-0.01 289.85,8.48 416.9,2.05 126.94,-6.42 82.69,-224.73 82.7,-332.17 0.03,-278.64 5.56,-563.18 -2.77,-840.97 -5.83,-194.38 189.99,-65.87 301.16,-113.7 66.96,-28.81 40.26,-311.07 40.21,-383.12 -0.05,-69.29 11.26,-355.71 -16.21,-398.68 -32.81,-51.31 -320.26,-40.35 -381.73,-24.67z"/>
   <path class="fil2" d="M-14675.22 9600.39c32.97,7.93 183.32,17.71 200.56,0.76l1.7 -393.19 372.72 -6.99 72.83 -156.6c-117.56,-76.5 -301.29,-40.79 -436.86,-52.87l0 -237.06c118.09,-27.69 440.47,7.1 489.51,-43.9 104.41,-206.4 -177.48,-176.24 -294.77,-176.24 -102.33,-0.01 -410.81,-57.77 -415.63,83.91 -3.81,112.31 -10.71,938.73 9.94,982.18z"/>
   <path class="fil2" d="M-13701.54 9627.23l-77.74 117.35 -183.63 14.05c-126.41,139.33 90.11,251.24 237.19,166.15 92.69,-53.61 62.68,-19.22 142.93,-102.6 12.27,-12.76 82.71,-146.99 87.14,-166.86 29.03,-129.97 269.04,-672.5 235.83,-750.66l0.68 -19.22c-29.68,-1.06 -186.11,-16.69 -199.83,1.34l-134.56 430.35c-34.83,32.27 -131.94,-307.7 -136.66,-331.57 -28.77,-145.57 -285.12,-170.65 -255.18,-17.05l193.28 510.76c33.85,53.24 17.8,18.8 35.98,82.53 20.15,70.64 26.2,27.23 54.57,65.43z"/>
   <path class="fil2" d="M-12161.33 9457.17l0 -67.73c72.12,-33.38 125.01,-80.15 211.67,-59.27 0,150.64 -66.28,162.03 -211.67,127zm-127.52 -362.51l310.72 -64.48c62.33,246.39 -87.07,78.41 -231.67,175.32 -103.51,69.37 -192.76,99.92 -172.05,262.42 16.53,129.76 116.84,196.54 243.41,194.54 136.07,-2.16 95.29,-34.4 176.69,-49.89 101,-19.22 62.09,66.06 173.96,33.07 128.27,-37.83 83.66,-259.51 83.67,-366.28 0.01,-128.06 17.56,-273.42 -90.41,-366.79 -130.96,-113.26 -714.24,-26.97 -494.32,182.09z"/>
   <path class="fil2" d="M-12975.71 9607.5c54.8,-80.96 2.98,-414.18 31.84,-492.61 21.42,-58.2 119.66,-89.2 176.46,-76.6 175.44,38.93 -120.33,622.55 207.46,594.76 133.1,-11.29 84.22,-348.39 85.44,-446.9 2.23,-180.21 -25.09,-266.17 -194.79,-331.71 -86.64,-33.46 -127.71,13.26 -201.28,29.76 -118.03,26.48 -87.5,-45.29 -213.45,-11.88 -116.8,30.97 -94.28,52.16 -93.28,170 0.76,90.14 -0.01,180.71 -0.02,270.91 0,50.86 -6.7,223.56 2.04,260.47 16.01,67.66 152.41,63.87 199.58,33.8z"/>
   <path class="fil2" d="M-9595.93 9169.3l-245.53 0c40.35,-150.02 245.53,-165.35 245.53,0zm110.07 262.47c-118,78.07 -425.77,45.72 -356.52,-93.84 54.43,-26.27 330.43,8.03 413.03,-10.52 89.66,-20.14 45.38,-256.14 -7.02,-326.13 -139.04,-185.75 -443.09,-163.43 -571.53,35.45 -71.2,110.26 -68.46,206.77 -53.99,335.99 17.3,154.41 43,176.47 165.93,257.48 72.76,47.95 290.08,63.91 368.04,21.98 156.19,-84.02 151.04,-84.92 42.06,-220.41z"/>
   <path class="fil2" d="M-11517.86 9651.9l135.46 0c64.31,-98.29 42.34,-420.04 42.34,-550.33 121.8,-29 248.91,-109.79 245.96,84.24 -1.24,81.36 -15.21,377.34 11.56,428.71 21.7,41.63 111.54,60.48 158.01,38.75 51.72,-24.2 44.69,-118.86 48.94,-171.9 9.79,-122.31 8.27,-293.33 -6.28,-414.66 -31.37,-261.57 -242.88,-193.1 -431.32,-166.03 -47.7,6.86 -82.08,-32.69 -182.68,-14.22 -112.86,20.72 -64.33,276.19 -64.33,367.51 0,116.55 -30.85,304.85 42.34,397.93z"/>
   <path class="fil2" d="M-10476.46 8889.9c-274.45,30.71 -358.22,461.81 -240.73,621.73 181.32,246.81 642.05,185.18 574.01,-23.84 -41.32,-126.93 -271.74,60.95 -346.05,-51.71 -66.59,-100.97 -78.53,-266.86 21.96,-342.17 103.04,-77.23 308.51,83.81 327.86,-88.15 18.17,-161.38 -244.36,-126.23 -337.05,-115.86z"/>
  </g>
  <g id="_2234746157360">
   <path class="fil2" d="M-23172.01 20603.66c-150.8,117.47 -308.35,296.34 -456.2,426.77 -78.43,69.17 -152.46,140.64 -232.14,209.28 -93.27,80.34 39.57,196.2 95.12,265.51 237.08,295.74 149.23,362.27 446.72,129.24 75.17,-58.88 434.74,-387.27 497.2,-374.18 29.06,54.53 13.76,3066.5 13.71,3555.05 -0.03,342.2 -54.69,315.01 280.25,315.45 203.13,0.26 430.33,69.48 413.27,-181.11 -25.34,-372.36 -6.75,-800.15 -6.75,-1178.5l-7.01 -3566.96c-144.47,-65.29 -908.65,-28.03 -1121.25,-28.03 -57.99,0 -239.64,-7.27 -283.73,4.08 -155.88,40.15 277.78,265.5 360.81,423.4z"/>
   <path class="fil2" d="M-20035.67 21938.99l117.08 962.09 -520.56 1.32c-162.06,2.51 -74.46,-42.68 -45.34,-122.8 20.19,-55.56 58.13,-119.18 88.74,-170.54 58.15,-97.52 110.84,-247.75 167.05,-344.53 27.34,-47.08 71.2,-119.75 88.67,-170.61 14.6,-42.46 28.07,-31.26 44.03,-82.11 20.77,-66.18 22.4,-25.71 60.33,-72.82zm-1699.74 1965.33c89.55,58.66 225.95,42.05 336.37,42.04 73,0 304.96,24.48 338.43,-39.98 19.42,-37.41 0,-32 26.44,-64.67 30.67,-37.92 17.17,-20.82 33.06,-65.05 0.63,-1.73 64.48,-120.04 66.48,-122.73 36.78,-49.21 99.45,-185.37 131.25,-247.16 63.45,0 938.05,-6.32 955.54,4.53 10.91,6.77 44.82,229.2 52.73,269.62 60.81,311 -70.44,301.29 344.21,292.33 345.26,-7.46 345.11,67.71 276.08,-289.08 -35.03,-181.08 -41.94,-368.89 -90.18,-547.37 -42.31,-156.51 -45.66,-390.93 -91.58,-553.14 -43.24,-152.75 -46.84,-393.78 -90.29,-547.41 -45.17,-159.74 -48.68,-398.81 -92.28,-552.44 -93.53,-329.54 33.37,-253.8 -381.28,-256.7 -434.83,-3.06 -333.09,-30.87 -457.95,187.25 -156.07,272.65 -297.88,556.29 -451.39,830.75 -152.92,273.4 -304.14,554.62 -450.93,831.49 -135.3,255.18 -300.8,591.93 -454.71,827.72z"/>
   <path class="fil2" d="M-23263.15 22160.92c-31.97,0.18 -441.06,242.29 -505.09,278.2 -119.34,66.93 -84.65,190.86 -82.49,309.94 2.33,128.77 -1.02,262.02 -1.02,391.41 0,261.47 2.21,523.83 0.29,785.17 -1.99,271.47 65.82,511.78 -317.4,467.43 -137.73,-15.94 -145.38,-135.45 -145.41,-250.48l0 -1184.33c0.02,-174.55 27.8,-244.8 -150.82,-136.8 -52.37,31.67 -199.74,118.7 -240.19,152.26 -76.23,63.27 -199.52,83.27 -198.33,194.1 1.43,133.31 0.67,266.76 0.69,400.12 0.03,420.39 -63.46,988.65 256.96,1312.79 300.27,303.76 801.17,324.23 1128.6,51.76 394.4,-328.23 310.32,-806.36 310.32,-1266.44 0,-261.62 0,-523.24 0,-784.86 0,-95.06 46.46,-720.85 -56.11,-720.27z"/>
   <path class="fil2" d="M-13185.93 21956.15l-1058.17 -14.01c39.68,-111.95 30.71,-210.17 64.26,-321.8 46.6,-155.01 27.29,-217.79 -152.02,-200.7 -438.21,41.74 -349.17,-122.91 -441.91,343.18 -86.72,435.81 -158.31,879.44 -238.81,1316.96 -87.79,477.17 -48.17,890.21 521.02,960.73 458.78,56.85 794.59,-97.93 1016.13,-502.78 101.51,-185.52 119.76,-409.8 161.01,-613.54 15.34,-75.73 88.79,-247.54 -30.81,-265.9 -15.82,-2.42 -372.16,-15.49 -377.49,-14.37 -233.12,48.77 -20.36,1068.18 -641.26,889.54 -211.83,-60.96 -91.32,-426.41 -60.1,-587 20.91,-107.63 41.41,-215.66 62.02,-323.4 70.47,-368.32 -86.44,-232.42 895.82,-232.42 164.04,0 246.24,46 268.45,-123.98 14.06,-107.47 91.74,-191.68 11.86,-310.51z"/>
   <path class="fil2" d="M-10143.19 21945.58c-255.56,12.63 -448.7,31.31 -663.41,189.46 -196.41,144.67 -264.59,376.14 -213.56,612.91 106.62,494.73 1024.39,435.6 1052.12,667.4 32.4,270.84 -495.59,249.54 -601.93,178.57 -189.64,-126.57 -12.78,-243.96 -176.46,-251.02 -134.96,-5.82 -282.03,-15.27 -420.72,-5.68 -236.32,16.35 -29.53,453.8 102.32,555.34 202.86,156.25 427.87,186.89 675.01,187.01 280.8,0.13 443.62,-27.77 690.99,-164.01 187.8,-103.45 327.08,-315.72 325.1,-529.67 -2.6,-280.5 -59.61,-413.06 -339.27,-515.79 -214.56,-78.82 -442.22,-113.3 -654.37,-207.61 -133,-59.12 -137.71,-209.09 -33.52,-247.84 87.95,-32.7 276.79,-52.49 368.71,-31.38 237.24,54.51 123.32,104.38 200.91,226.68 36.57,57.67 318.27,31.2 395.21,33.67 186.6,6 183.89,-93.85 141.93,-262.92 -23.1,-93.11 -78.37,-211.45 -152.67,-274.35 -189.65,-160.56 -460.03,-172.44 -696.39,-160.77z"/>
   <path class="fil2" d="M-12920.93 21971.73c-93.29,38.32 -133.18,506.65 -157.2,617.81 -46.07,213.27 -82.13,440.28 -121.2,656.1 -40.94,226.19 -57.53,429.57 99.59,621.55 133.52,163.13 366.2,228.65 570.39,199.11 376.53,-54.47 511.38,-299.39 510.58,-200.86 -1.57,195.31 -27.16,161.6 203.91,163.88 102,1 276.33,42.07 328.43,-65.22 22.08,-45.47 109.4,-564.34 123.78,-654.19 33.59,-209.79 75.62,-456.77 122.07,-662.81 22.73,-100.88 42.72,-220.94 58.2,-323.72 13.22,-87.79 89.21,-258.02 7.17,-316.99 -39.85,-28.63 -300.76,-25.65 -369.09,-27.68 -153.76,-4.56 -170.38,81.43 -183.03,209.68 -19.39,196.39 -84.04,455.75 -121.23,656.64 -36.12,195.13 -50.34,441.2 -193.86,591.19 -121.9,127.38 -458.93,228.65 -559.99,74.69 -83.94,-127.86 25.56,-516.87 50.53,-675.43 31.85,-202.04 76.82,-458.22 124.1,-655.58 29.22,-121.96 61.06,-209.05 -101.19,-218.85 -51.93,-3.14 -358.53,-3.06 -391.96,10.68z"/>
   <path class="fil2" d="M-17830.97 23756.13c15.8,37.5 -71.53,149.53 -17.26,213.39l504.24 2.43c12.16,-8.45 61.94,-197.22 66.45,-227.88 7.08,-48.13 3.81,-89.55 11.02,-136.15 7.45,-48.11 26.4,-61.47 35.15,-112.01 8.63,-49.8 6.46,-88.05 11.49,-135.67 6.35,-60.06 25.28,-63.21 34.77,-112.4 8.53,-44.19 9.88,-90.39 12.19,-134.97 3.27,-63.36 22.59,-67.21 34.54,-119.63 22.47,-98.49 9.14,-136.64 44.54,-249.79 26.11,-83.47 9.72,-143.27 47.27,-254.07 36.31,-107.13 42.75,-410.4 90.46,-505.19 -74.35,-45.89 -465.98,-70.59 -536.53,-31.98 -61.38,33.61 -98.51,385.32 -119.3,469.36 -61.42,248.24 -84.38,758.3 -238.67,945.65 -199.13,241.79 -735.12,302.8 -602.47,-211.18 77.86,-301.74 127.37,-684.91 182.4,-997.6 11.75,-66.78 75.71,-172.26 -2.05,-213.58 -51.02,-27.12 -214.69,-15.87 -280.77,-16.47 -353.78,-3.18 -221.39,13.33 -298.53,290.14 -41.26,148.03 -51.11,348.47 -89.99,498.76 -41.12,158.92 -55.85,344.95 -90.35,505.12 -71.17,330.4 -3.02,640.7 343.49,768.02 472.99,173.81 837.9,-234.4 857.91,-234.3z"/>
   <path class="fil2" d="M-16032.3 21902.45c-380.93,33.09 -713.27,289.32 -859.21,636.88 -149.21,355.29 -191.8,896.36 40.03,1225.32 236.18,335.13 789.84,336.91 1119.89,158.85 163.25,-88.07 297.04,-191.42 406.35,-343.46 300.89,-418.48 77.76,-338.22 -100.84,-342.89 -426.17,-11.16 -225.72,17.87 -488.78,250.81 -107,94.76 -451.2,104.67 -492.56,-125.31 -38.87,-216.08 -12.88,-317.5 -1.91,-516.33 5.13,-92.76 33.37,-77.28 45.7,-143.52 15.69,-84.3 92.5,-171.51 149.85,-228.55 60.46,-60.14 195.62,-86.96 283.16,-95.86 90.49,-9.19 225.78,34.09 271.64,95.65 59.51,79.87 -23.06,228.65 147.44,231.06 471.71,6.66 504.31,57.33 448.61,-268.24 -80.84,-472.48 -561.63,-569.83 -969.37,-534.41z"/>
   <path class="fil2" d="M-25098.97 22369.44c168.68,115.61 153.62,267.94 384.62,118.68 43.26,-27.95 263.66,-166.01 304.28,-179.27 53.94,-17.61 61.42,-44.19 60.76,-100.41 -98.49,-69.92 -776.98,-697.12 -819.31,-677.27 -33.91,15.9 -688.89,653.48 -774.94,736.86 -72.67,70.42 -157.56,115.31 -158.15,220.26 -0.71,126.07 0.46,252.71 0.46,378.88 0,355.72 -83.07,475.47 255.41,269.43 56.99,-34.69 464.47,-260.05 477.81,-279.04 60.09,-85.5 -43.31,-213.14 68.75,-309.67 35.36,-30.46 185.51,-173.02 200.31,-178.45z"/>
   <path class="fil2" d="M-25400.48 23399.76c-101.25,25.83 -336,185.89 -442.83,243.93 -294.04,159.74 -258.41,96.56 -257.95,435.82 0.3,231.24 0.02,462.52 0.01,693.77 -0.02,414.24 -71.72,357.45 336.38,357.39 108.42,-0.01 239.9,7.02 345.06,1.7 105.07,-5.32 68.44,-186.01 68.45,-274.94 0.02,-230.62 4.6,-466.13 -2.29,-696.06 -4.83,-160.88 157.25,-54.52 249.26,-94.11 55.43,-23.84 33.33,-257.46 33.28,-317.1 -0.04,-57.35 9.32,-294.42 -13.41,-329.98 -27.16,-42.47 -265.08,-33.4 -315.96,-20.42z"/>
   <path class="fil2" d="M-13893.12 24933.87c27.29,6.56 151.73,14.66 166,0.63l1.41 -325.44 308.49 -5.78 60.28 -129.62c-97.3,-63.32 -249.37,-33.76 -361.58,-43.76l0 -196.21c97.74,-22.92 364.57,5.87 405.16,-36.34 86.42,-170.83 -146.9,-145.87 -243.97,-145.87 -84.7,-0.01 -340.03,-47.81 -344.02,69.45 -3.15,92.96 -8.86,776.98 8.23,812.94z"/>
   <path class="fil2" d="M-13087.22 24956.09l-64.34 97.13 -151.99 11.62c-104.63,115.33 74.58,207.95 196.32,137.53 76.72,-44.38 51.88,-15.91 118.3,-84.93 10.16,-10.56 68.46,-121.66 72.13,-138.1 24.02,-107.58 222.68,-556.62 195.19,-621.32l0.56 -15.9c-24.56,-0.88 -154.04,-13.82 -165.39,1.1l-111.38 356.2c-28.83,26.71 -109.2,-254.68 -113.11,-274.44 -23.81,-120.48 -235.99,-141.24 -211.21,-14.11l159.98 422.75c28.01,44.07 14.73,15.56 29.78,68.31 16.67,58.47 21.68,22.54 45.16,54.16z"/>
   <path class="fil2" d="M-11812.4 24815.33l0 -56.06c59.69,-27.63 103.47,-66.34 175.2,-49.06 0,124.69 -54.86,134.11 -175.2,105.12zm-105.55 -300.05l257.18 -53.37c51.59,203.94 -72.07,64.9 -191.75,145.12 -85.67,57.41 -159.55,82.7 -142.4,217.2 13.68,107.4 96.7,162.67 201.46,161.02 112.63,-1.79 78.87,-28.48 146.25,-41.3 83.59,-15.91 51.39,54.68 143.98,27.37 106.17,-31.31 69.25,-214.79 69.26,-303.16 0,-106 14.53,-226.31 -74.84,-303.59 -108.39,-93.74 -591.16,-22.32 -409.14,150.71z"/>
   <path class="fil2" d="M-12486.45 24939.76c45.35,-67.01 2.46,-342.82 26.35,-407.73 17.73,-48.17 99.04,-73.83 146.05,-63.4 145.21,32.22 -99.59,515.28 171.72,492.27 110.16,-9.34 69.7,-288.35 70.71,-369.89 1.85,-149.16 -20.76,-220.31 -161.22,-274.55 -71.71,-27.7 -105.71,10.97 -166.6,24.63 -97.69,21.92 -72.42,-37.49 -176.67,-9.83 -96.67,25.63 -78.03,43.17 -77.21,140.7 0.63,74.61 -0.01,149.57 -0.01,224.23 0,42.1 -5.55,185.04 1.69,215.59 13.25,56 126.14,52.86 165.19,27.98z"/>
   <path class="fil2" d="M-9689.05 24577.06l-203.22 0c33.4,-124.17 203.22,-136.86 203.22,0zm91.1 217.25c-97.66,64.61 -352.4,37.84 -295.08,-77.67 45.05,-21.75 273.49,6.64 341.86,-8.71 74.21,-16.67 37.56,-212.01 -5.81,-269.94 -115.09,-153.74 -366.74,-135.26 -473.05,29.35 -58.93,91.26 -56.67,171.14 -44.69,278.09 14.32,127.8 35.59,146.06 137.34,213.11 60.22,39.69 240.1,52.9 304.62,18.2 129.28,-69.55 125.02,-70.29 34.81,-182.43z"/>
   <path class="fil2" d="M-11279.81 24976.51l112.12 0c53.23,-81.36 35.04,-347.67 35.04,-455.51 100.82,-24 206.02,-90.87 203.58,69.73 -1.02,67.34 -12.59,312.32 9.57,354.84 17.96,34.45 92.32,50.06 130.78,32.07 42.81,-20.03 36.99,-98.38 40.51,-142.28 8.1,-101.23 6.85,-242.79 -5.2,-343.21 -25.96,-216.5 -201.03,-159.83 -357,-137.42 -39.48,5.68 -67.93,-27.06 -151.2,-11.77 -93.41,17.15 -53.24,228.6 -53.24,304.18 0,96.47 -25.54,252.32 35.04,329.37z"/>
   <path class="fil2" d="M-10417.85 24345.81c-227.16,25.42 -296.5,382.23 -199.25,514.6 150.07,204.28 531.41,153.27 475.1,-19.74 -34.2,-105.05 -224.92,50.45 -286.42,-42.8 -55.12,-83.57 -65,-220.87 18.17,-283.21 85.29,-63.92 255.35,69.37 271.37,-72.96 15.04,-133.57 -202.26,-104.48 -278.97,-95.89z"/>
  </g>
  <g id="_2234746153040">
   <path class="fil3" d="M-23668.91 24673.33c-87.63,102.13 -315.35,305.63 -415.29,389.86 -66.02,55.63 -136.85,137.94 -207.49,195.44 -56.84,46.27 -189.52,143.81 -177.95,220.07 19.21,36.79 14.89,13.73 33.4,36.33 6.31,7.71 44.34,77.98 88.55,128.42 239.7,273.52 227.57,439.39 426.21,248.83 94.18,-90.33 221.6,-165.8 316.82,-256.57 41.86,-39.9 109.46,-96.33 157.77,-128.93 73.77,-49.78 92.86,-111.27 175.83,-103.12 10.05,712.77 7.75,1425.27 7.75,2138.63 0,322.15 -35.88,1951.98 23.25,2130.86 157.96,19.02 370.76,8.96 533.65,6.75 280.16,-3.81 206.01,-99.55 202.21,-332.23 -5.9,-361.95 0.26,-729.86 0.26,-1092.51l0.07 -3285.48c-0.19,-178.56 -9.88,-356.98 -8.49,-533.92 2.39,-303.29 -17.13,-231.32 -317.02,-233.13 -363.6,-2.19 -730.33,6.13 -1093.37,-0.47 -315.44,-5.74 -139.94,96.78 -22.94,202.44 69.62,62.87 241.07,189.41 276.78,268.73z"/>
   <path class="fil3" d="M-20197.22 26149.9l128.25 1065.72 -575.49 1.41c-179.91,2.57 -82.24,-46.4 -50.11,-135.72 23.98,-66.66 61.42,-127.34 98.16,-188.54 23.77,-39.6 66.98,-159.92 93.22,-193.48 32.28,-41.29 70.54,-156.5 94.38,-192.32 100.89,-151.55 83.69,-229.31 211.59,-357.07zm-849.98 1624.85l1066.79 10.26c13.8,16.87 14.1,134.8 18.51,167.47 7.75,57.54 29.87,91.85 36.21,149.75 11.35,103.64 -25.2,253.68 79.24,292.7 49.04,18.31 439.42,6.76 551.2,8.2 82.54,1.06 82.91,-10.27 89.65,-94.65 9.97,-124.94 -98.12,-483.45 -105.9,-634.48 -9.99,-194.01 -97.82,-455.5 -106.25,-645.36 -8.16,-183.5 -98.53,-449.11 -106.6,-637.27 -4.88,-113.72 -47.55,-191.15 -53.19,-318.74 -4.97,-112.07 -47.07,-189.57 -53.29,-318.65 -2.81,-58.32 -40.73,-248.01 -53.12,-318.81 -19.25,-109.9 -207.81,-69.01 -301.97,-69.95 -574.99,-5.73 -454.24,-31.97 -574.88,176.43 -176.98,305.73 -361.79,649.02 -524.16,963.31 -168.18,325.51 -357.93,644.22 -525.23,970.25 -82.92,161.61 -180.81,319.06 -262.39,481.48 -179.48,357.31 -283.75,407.31 -65.54,406.78 86.82,-0.21 476.16,19.78 545.41,3.34 79.55,-18.87 51.28,-52.99 83.45,-102.51 87.26,-134.34 183.06,-336.06 262.06,-489.55z"/>
   <path class="fil3" d="M-23766.96 26395.49c-170.15,83.25 -398.14,209.43 -559.84,308.01 -123.01,74.99 -95.58,218.45 -90.97,342.95 5.22,141.42 -0.07,291.29 -0.07,433.84 -0.02,287.75 4.83,579.58 -1.06,866.8 -5.84,284.51 74.55,579.3 -345.98,515.31 -160.84,-24.46 -169.5,-131.25 -167.7,-270.66 5.57,-431.76 -5.75,-898.68 8.9,-1317.62 13.11,-374.79 -257.11,-91.34 -435.36,24.38 -100.78,65.44 -198.56,73.99 -220.59,213.29 -15.84,100.14 -0.23,323.84 -1.1,440.78 -3.7,494.05 -68.6,1055.26 285.58,1451.09 319.7,357.27 885.85,337.17 1247.05,58.09 434.15,-335.44 343.12,-916.72 343.12,-1400.31 0,-289.28 0,-578.56 0,-867.84 0,-143.19 -2.85,-287.46 -2.38,-430.21 0.43,-135.67 48.61,-268.07 -59.6,-367.9z"/>
   <path class="fil3" d="M-12622.38 26176.45l-1164.37 -6.91c22.17,-118.33 27.48,-255.95 59.04,-355.89 61.5,-194.83 54.39,-243.25 -151.9,-231.86 -77.19,4.25 -368.74,-17.7 -410.96,16.31 -62.68,50.46 -65.14,274.34 -81.97,351.08 -22.94,104.64 -43.13,269.63 -71.98,354.19 -25.07,73.51 -19.89,115.46 -27.62,189.33 -6.85,65.55 -34.73,111.24 -43.85,173.11 -16.31,110.62 -53.38,269.18 -58.8,367.39 -4.42,80.05 -20.33,105.6 -39.46,177.5 -17.64,66.34 -8.71,127.33 -23.97,192.98 -109.42,470.72 -47.81,1037.92 556.43,1068.32 278.57,14.02 448.65,35.33 711.4,-102.68 182.95,-96.09 331.76,-260.15 424.38,-443.47 106.99,-211.78 134.01,-448.38 185.14,-675.31 19.72,-87.51 74.15,-288.08 -31.4,-304.4 -18.1,-2.8 -398.47,-16.66 -416.9,-14.55 -99.16,11.36 -87.38,24.28 -104.8,107.15 -14.45,68.77 -33.08,84.08 -42.65,174.3 -11.74,110.43 -38.34,262.58 -60.56,373.37 -14.35,71.55 -95.94,219.56 -158.51,267.67 -112.51,86.48 -206.25,82.31 -344.85,62.2 -128.44,-18.62 -151.25,-173.9 -145.13,-281.02 6.95,-121.34 96.23,-397.17 100.81,-542.28 2.92,-92.4 34.38,-100.3 43.98,-172.99 15.12,-114.52 -8.63,-295.43 141.23,-292.7 276.29,5.03 558.37,23.91 837.51,23.91 166.38,0 285.04,50.31 303.79,-130.13 9.9,-95.28 104.58,-248.61 15.97,-344.62z"/>
   <path class="fil3" d="M-11320.02 28446.22c35.32,28.26 316.9,18.06 384.78,18.16 256.78,0.4 158.98,-20.51 207.52,-195.4 28.73,-103.5 41.59,-264.47 71.27,-331.66 25.73,-58.22 20.49,-116.33 24.28,-177.19 4.77,-76.71 33.18,-94.96 43.35,-158.12 9.89,-61.5 6.03,-126.09 17.71,-183.75 12.8,-63.22 32.47,-73.85 41.75,-159.72 14.21,-131.53 51.38,-224.05 58.15,-344.77 6.18,-110.37 150.88,-629.02 95.53,-690.43 -20.06,-19.67 -258.12,-21.77 -303.83,-21.6 -68.74,0.24 -264.86,-31.13 -293.32,39.95 -4.45,11.1 -54.79,251.28 -55.28,270.16 -3.26,126.7 -45.75,167.09 -53.24,279.95 -5.89,88.73 -93.69,456.68 -102.75,555.87 -16.23,177.64 -64.91,346.49 -191.23,475.16 -130.39,132.81 -319.2,171.62 -504.11,136.74 -181.78,-34.28 -146.52,-368.85 -102.6,-495.49 36.2,-104.39 14.3,-177.83 50.02,-275.42 40.28,-110.02 14.9,-182.15 51.39,-281.81 40.71,-111.23 16.4,-183.51 51.93,-281.26 41.55,-114.31 17.21,-193.12 51.05,-282.48 91.52,-241.78 -264.17,-161.9 -437.37,-165.22 -117.89,-2.26 -182.97,-2.22 -190.89,134.16 -6.9,118.63 -46.36,177.08 -51.29,281.69 -5.51,116.86 -46.73,176.89 -52.13,273.31 -6.78,121.27 -46.2,186.01 -52.34,280.85 -8.09,125.03 -45.29,187.54 -52.93,280.26 -10.47,127.46 -40.15,182.47 -51.38,281.75 -20.82,184.03 -1.4,384.61 111.82,536.95 135.53,182.37 208.03,189.49 413.65,252.76 205.31,63.19 558.8,-58.28 748.63,-221.53 119.7,-102.96 1.03,106.79 71.86,168.13z"/>
   <path class="fil3" d="M-17760.56 28161.04c17.47,41.47 -79.09,165.34 -19.08,235.95l-0.03 11.7c81.08,0.22 534.7,9.98 575.79,-4.13l406.78 -2200.85c-72.09,-94.28 -483.16,-40.53 -608.25,-40.68 -102.56,295.13 -130.51,708.06 -196.6,1019.93 -60.27,284.44 -121.41,700.83 -493.28,729.9 -211.16,16.5 -374.93,16.49 -374.41,-236.99 0.2,-98.49 61.72,-428.04 90.6,-526.12 41.16,-139.75 50.66,-380.2 90.17,-521.98 28.82,-103.44 24.76,-163.25 44.5,-254.55 14.91,-68.97 85.37,-176.62 -10.28,-218.83 -61.66,-27.2 -520.1,-27.78 -567.17,11.63 -34.65,29 -88.29,435.24 -101.43,509.25 -59.13,333.03 -150.55,694.95 -197.17,1026.5 -49.48,351.82 140.75,640.52 475.78,738.77 466.99,136.95 881.59,-279.63 884.08,-279.5z"/>
   <path class="fil3" d="M-15762.64 26116.54c-445.92,37.51 -778.27,297.59 -960.01,698.2 -167.25,368.7 -205.5,1016.66 45.38,1355.47 284.21,383.82 845.1,362.76 1238.3,176.16 167.57,-79.52 340.27,-230.78 450.11,-379.76 201.05,-272.76 278.38,-388.72 -111.81,-380.08 -107.35,2.37 -278.11,-46.58 -355.45,45.99 -80.46,96.29 -44.23,149.28 -185.51,231.61 -190.89,111.25 -473.35,116.21 -539.65,-142.45 -104.62,-408.14 -1.46,-1064.22 521.46,-1079.43 472.14,-13.71 217.74,337.57 462.55,358.72 30.87,2.67 403.28,3.96 419.69,0.66 148.18,-29.74 100.57,-192.17 78.04,-300.59 -109.78,-528.44 -595.16,-623.86 -1063.1,-584.5z"/>
   <path class="fil3" d="M-24970.56 26452.3c-28.31,-35.99 -217.87,-193.51 -268.64,-235.03 -84.89,-69.43 -203.6,-162.29 -275.02,-236.39 -51.18,-53.1 -214.45,-194.96 -268.96,-234.71 -106.57,-77.71 -55.93,-76.82 -274.16,125.62 -174.52,161.88 -340.63,338.01 -518.44,496.64 -396.19,353.46 -329.37,301.35 -329.38,685.7 0,98.54 -13.02,428.25 3.74,500.84 25.51,110.49 256.87,-65.75 313.51,-98.36 102.86,-59.2 222.53,-120.02 320.98,-182.69 209.39,-133.28 189.07,-54.26 189.48,-321.92 0.19,-121.83 144.39,-201.3 225.8,-277.95 76.55,-72.07 78.07,-36.15 137.73,25.69 152.28,157.84 127.22,197.77 466.07,-18.44 37.31,-23.82 138.6,-69.48 163.23,-92.48 52.58,-49.08 131.97,-29.9 114.06,-136.52z"/>
   <path class="fil3" d="M-26091.55 29673.15l16.42 -1146.78c365.84,-97.29 301.19,229.83 309.47,-620.34 1.5,-155.16 -20.88,-148.56 -163.32,-146.68 -302.03,3.99 -226.54,19.74 -470.4,149.24 -132.66,70.46 -262.29,152.88 -394.61,225.28 -114.24,62.51 -112.46,70.28 -111.02,198.92l-0.58 1240.07c0.87,147.32 77.21,107.34 201.99,107.95 150.28,0.74 481.7,17.18 612.05,-7.66z"/>
   <path class="fil3" d="M-13406.33 29463.21c32.07,7.18 165.49,16.75 183.21,-0.52 0.48,-50.27 -2.89,-334.7 7.62,-359.46l337.91 -5.42 53.19 -146.79c-56.18,-64.09 -297.17,-36.81 -388.95,-44.98l0 -216.95c116.94,-27.73 398.51,11.06 451.61,-44.32 65.2,-200.89 -145.46,-157.16 -281.14,-157.15 -92.92,0.01 -368.47,-52.32 -372.61,76.81 -3.18,99.52 -8.24,864.62 9.16,898.78z"/>
   <path class="fil3" d="M-12518.63 29486.4l-68.34 108.03 -167.43 13.59c-115.37,123.36 79.37,232.19 216.94,152.12 85.25,-49.62 56.98,-17.77 130.84,-93.86 10.57,-10.89 75.61,-134.06 79.76,-152.7 25.91,-116.54 249.85,-619.35 212.76,-691.72l0.23 -15.56c-23.33,-0.33 -170.63,-7.81 -179.43,3.08l-130.48 389.69c-41.35,-16.9 -107.61,-238.33 -116.6,-291.86 -23.57,-140.2 -256.07,-161.09 -235.93,-28.78l178.15 473.99c45.99,72.27 19.27,57.21 79.53,133.98z"/>
   <path class="fil3" d="M-11105.72 29332.22c0,-99.11 -1.45,-46.1 67.77,-94.95 48.36,-34.15 67.91,-35.27 125.95,-21.28 0,137.86 -60.66,148.29 -193.72,116.23zm-116.8 -331.86l281.59 -41.88c180.05,181.73 -411.54,24.02 -366.61,383.59 14.84,118.8 107.17,179.77 222.8,177.98 123.86,-1.9 87.75,-31.55 161.67,-45.69 90.62,-17.36 58.34,60.14 159.19,30.37 117.41,-34.67 76.59,-237.51 76.59,-335.24 0,-117.2 16.02,-250.13 -82.7,-335.73 -115.53,-100.19 -651.19,-30.02 -452.53,166.6z"/>
   <path class="fil3" d="M-8758.9 29067.75l-222.86 1c32.33,-139.55 231,-146.47 222.86,-1zm104.05 249.05c-43.09,0.17 -115.12,36.67 -210.82,30.46 -61.01,-3.95 -149.41,-61.15 -117.85,-123.52 48.01,-24.64 303.28,6.49 378.1,-10.25 81.76,-18.3 41.76,-234.15 -6.36,-298.58 -127.23,-170.34 -405.33,-148.59 -523.17,32.5 -65.16,100.13 -62.61,190.22 -49.35,307.49 15.95,141.03 38.96,161.58 151.81,235.68 163.11,107.11 630.36,-14.68 377.64,-173.78z"/>
   <path class="fil3" d="M-11852.21 29469.07l29.98 -454.99c377.46,-298.53 122.83,415.34 245.6,463.62 195.96,77.06 184.22,-70.99 184.21,-207.47 -0.01,-144.13 13.33,-254.25 -34.87,-391.31 -31.13,-88.51 -199.12,-127.37 -286.6,-85.15 -78.22,37.73 -278.21,-51.63 -316.4,47.8 -4.41,11.44 -18.66,586.87 5.47,619.39 25.09,33.79 141.62,34.04 172.61,8.11z"/>
   <path class="fil3" d="M-10518.97 29504.83l127.87 4.76c59.4,-64.82 18.33,-393.17 40.5,-499.31 98.44,-64.47 223.84,-79.43 221.56,73.62 -1.07,72.13 -12.38,339.16 8.13,387.05 19.12,44.65 105.19,55.64 141.39,42.79 54.75,-19.46 45.02,-101.67 49.79,-152.33 9.3,-98.7 8.07,-281.28 -4.25,-379.59 -18.87,-150.75 -61.47,-176.25 -211.87,-184.1 -58.47,-3.06 -120.3,13.55 -177.64,24.11 -47.3,8.7 -77.39,-26.88 -166.54,-12.98 -111.88,17.44 -65.54,241.37 -65.54,329.65 0,83.13 -23.34,313.09 36.6,366.33z"/>
   <path class="fil3" d="M-9569.44 28810.67c-312.19,44.75 -406.51,715.67 67.54,715.55 104.75,-0.03 288.82,-24.34 243.24,-165.95 -37.21,-115.61 -253.86,55.29 -317.25,-46.89 -31.68,-51.06 -55.98,-93.99 -48.24,-164.91 4.28,-39.17 39.03,-127.99 68.6,-148.96 97.89,-69.42 281.84,76.33 300.3,-80.35 16.54,-140.49 -229.09,-120.69 -314.19,-108.49z"/>
   <path class="fil3" d="M-9873.69 27705.01c0,0 0,0 0,0z"/>
  </g>
  <g id="_2234746152608">
   <path class="fil4" d="M-23398.48 18196.98c-61.53,71.71 -221.42,214.59 -291.59,273.72 -46.35,39.07 -96.08,96.86 -145.68,137.23 -39.91,32.48 -133.07,100.97 -124.94,154.52 13.48,25.83 10.45,9.63 23.45,25.51 4.42,5.41 31.13,54.74 62.17,90.16 168.3,192.04 159.78,308.5 299.25,174.71 66.13,-63.43 155.59,-116.41 222.45,-180.14 29.39,-28.02 76.85,-67.64 110.77,-90.53 51.8,-34.95 65.2,-78.12 123.46,-72.4 10.72,761.06 5.44,1523.44 5.44,2285 0,190.34 0.96,380.96 -0.01,571.26 -0.65,128.42 -6.65,155.31 135.52,147.38 344.72,-19.22 417.84,62.14 400.97,-166.75 -6.87,-93.12 -3.33,-191.5 -3.31,-285.31l0.02 -2867.15c-0.31,-93.88 -3.99,-184.25 -5.55,-277.35 -0.95,-56.51 26.51,-232.57 -40.04,-248.31 -47.45,-11.23 -713.47,-2.87 -857.45,-2.01 -30.46,0.19 -285.15,-20.24 -211.2,52.4 63.99,62.86 263.32,204.87 296.27,278.06z"/>
   <path class="fil4" d="M-20960.94 19233.71l90.05 748.26 -404.07 0.99c-126.31,1.81 -57.74,-32.57 -35.18,-95.29 16.84,-46.8 43.13,-89.41 68.92,-132.38 16.69,-27.8 47.03,-112.28 65.45,-135.84 22.67,-29 49.53,-109.88 66.27,-135.03 70.84,-106.41 58.76,-161.01 148.56,-250.71zm-596.79 1140.84l749.02 7.2c9.69,11.85 9.9,94.65 12.99,117.59 5.44,40.39 20.98,64.49 25.43,105.14 7.97,72.77 -17.69,178.12 55.63,205.51 34.44,12.86 308.53,4.75 387.01,5.76 57.96,0.74 58.22,-7.21 62.95,-66.46 7,-87.72 -68.89,-339.44 -74.35,-445.48 -7.02,-136.22 -68.69,-319.81 -74.61,-453.12 -5.72,-128.84 -69.18,-315.33 -74.84,-447.44 -3.43,-79.84 -33.39,-134.21 -37.35,-223.79 -3.49,-78.69 -33.05,-133.11 -37.41,-223.73 -1.97,-40.96 -28.6,-174.14 -37.3,-223.85 -13.52,-77.16 -145.91,-48.45 -212.02,-49.11 -403.71,-4.03 -318.93,-22.45 -403.63,123.87 -124.27,214.66 -254.02,455.7 -368.03,676.36 -118.08,228.55 -251.31,452.32 -368.77,681.24 -58.22,113.47 -126.96,224.01 -184.24,338.05 -126.01,250.88 -199.22,285.99 -46.01,285.61 60.96,-0.14 334.32,13.89 382.94,2.35 55.85,-13.25 36.01,-37.21 58.6,-71.98 61.26,-94.32 128.53,-235.95 183.99,-343.72z"/>
   <path class="fil4" d="M-23467.54 19407.8c-22.21,-0.25 -344.86,188.12 -392.38,215.08 -90.57,51.4 -65.85,151.09 -63.83,240.84 2.25,99.83 -0.58,203.71 -0.58,304.09 0,202.4 3.16,407.29 0.03,609.36 -1.09,70.55 13.15,235.57 -14.73,290.14 -35.66,69.82 -160.94,85.44 -229.39,70.49 -129.87,-28.38 -114.99,-81.9 -114.98,-192l0 -919.44c0,-204.7 -6.5,-185.66 -302.34,13.21 -68.06,45.76 -143.59,57.43 -154.98,149.68 -9.15,74.1 -0.26,227.26 0.23,310.34 1.99,331.29 -51.52,762.09 199.71,1019.13 233.97,239.38 618.94,248.76 876.11,40.36 306.68,-248.51 240.86,-631.65 240.86,-983.24 0,-298.82 3.52,-616.11 -0.81,-913.57 -0.76,-51.77 27.7,-253.66 -42.92,-254.47z"/>
   <path class="fil4" d="M-15642.48 19252.35l-817.53 -4.85c15.93,-83.97 19,-179.66 41.94,-250.21 46.98,-144.49 32.73,-167.48 -107.53,-162 -51.12,2 -261.69,-12.49 -288.97,10.14 -42.8,35.5 -44.35,195.33 -56.39,247.69 -17.46,75.92 -29.88,188.15 -50.89,248.34 -19.04,54.53 -13.38,79.17 -19,133.32 -4.78,45.99 -25.33,78.05 -31.64,120.7 -7.07,47.77 -0.43,81.73 -15.67,131.23 -17.85,57.94 -22.46,63.65 -25.04,127.28 -2.29,56.37 -13.79,73.75 -28.1,124.24 -13.29,46.9 -4.84,89.69 -16.19,136.15 -41.66,170.52 -64.03,356.04 17.96,518.7 68.54,135.96 222.76,225.16 372.91,230.74 46.12,1.71 87.01,14.29 131.45,15.23 46.05,0.98 87.51,-13.46 134.37,-15.89 233.36,-12.1 425.08,-187.27 531.34,-382.26 76.75,-140.83 91.85,-320.43 130.22,-473.94 8.71,-34.91 9.36,-90.69 16.89,-132.8 8.36,-46.74 13.15,-78.53 -40.95,-81.98 -48.29,-3.07 -103.43,2.25 -152.71,0.29 -49.96,-2 -80.57,-15.14 -141.08,-10.63 -58.27,4.34 -60.01,22.44 -70.96,75.94 -9.64,47.07 -22.86,59.69 -29.9,122.45 -14.7,131.2 -37.82,361.78 -153.67,450.21 -78.69,60.05 -142.91,57.57 -242.26,43.42 -88.44,-12.6 -106.4,-118.3 -101.98,-197.23 2.1,-37.48 23.93,-75.6 29.86,-122.48 6.27,-49.53 -2.21,-86.6 19.59,-132.73 17.55,-37.14 20.21,-84.43 21.29,-125.62 1.71,-64.72 24.16,-69.95 31,-121.33 10.52,-78.97 -6.6,-207.49 99.09,-205.57 193.98,3.52 392.05,16.78 588.03,16.78 116.82,0 200.14,35.33 213.3,-91.37 6.95,-66.89 73.43,-174.55 11.22,-241.96z"/>
   <path class="fil4" d="M-13281.56 19240.39c-202.01,13.41 -343.56,20.22 -515.48,146.57 -151.77,111.56 -206.23,293.92 -165.91,476.66 84.63,383.62 795.97,337.88 817.02,517.52 24.63,210.28 -383.16,193.97 -467.24,138.83 -135.84,-89.09 -18.69,-187.29 -136.89,-194.98 -103.34,-6.72 -219.54,-11.81 -326.62,-4.44 -180.02,12.38 -27.41,348.82 79.54,431.05 158.04,121.49 331.33,145.19 523.95,145.28 215.52,0.11 346.93,-22.08 536.53,-127.25 145.74,-80.84 253.62,-244.87 252.32,-411.29 -1.71,-219.47 -46.76,-319.02 -262.93,-400.91 -165.55,-62.7 -338.54,-88.57 -508.71,-160.47 -88.46,-37.37 -111.96,-146.56 -25.32,-192.18 45.93,-24.19 227.67,-41.06 284.99,-23.96 148.49,44.27 108.72,28.41 155.54,176.34 16.87,53.32 254.37,23.32 307.73,24.63 45.24,1.1 106.99,12.1 117.86,-44.96 22.71,-119.23 -34.86,-293.86 -126.17,-371.59 -143.63,-122.26 -360.15,-136.8 -540.21,-124.85z"/>
   <path class="fil4" d="M-14065.02 19285.28c-17.89,-17.53 -241.9,-15.09 -284.09,-15.16 -164.98,-0.24 -117.86,4.61 -162.67,142 -15.17,46.49 -8.3,85.91 -14.62,132.28 -6.24,45.81 -25.57,66.31 -32.15,120.18 -11.42,93.64 -37.96,177.66 -41.04,263.62 -2.18,60.59 -22.57,68.55 -30.06,116.84 -5.38,34.67 -4.25,111.16 -15.89,136.44 -45.13,98.04 -29.62,108.86 -101.28,203.39 -91.5,120.73 -314.15,180.14 -436.56,78.54 -100.88,-83.73 112,-863.25 121.2,-1030.14 4.37,-79.51 88.05,-172.69 -54.42,-179.51 -478.28,-22.85 -332.68,23.84 -396.02,212.97 -13.82,41.29 -85.84,465.14 -89.24,514.66 -3.59,52.52 -20.92,75.48 -30.83,121.5 -10.14,47.14 -1.36,86.93 -15.68,136.65 -50.44,175.11 -43.71,331.14 64.83,482.64 91.83,128.17 282.28,184.93 434.05,168.06 65.3,-7.26 173.97,-41.13 233.34,-70.8 31.94,-15.95 164.22,-118.14 173.49,-98.39 36.89,78.66 -95.43,136.99 143.51,137.53 52.96,0.12 251.23,16.63 272.26,-32.02 9.44,-21.83 42.39,-225.05 45.85,-258.82 6.16,-60.04 23.01,-72.62 30.64,-121.69 7.07,-45.48 -0.16,-94.85 15.87,-136.47 19.59,-50.89 23.74,-63.6 26.57,-120.32 3.7,-74 12.9,-66.05 27.89,-124.44 11.3,-43.99 6.2,-95.67 13.83,-138.51 8.41,-47.25 24.56,-57.39 30.84,-121.49 7.86,-80.13 104.12,-482.1 70.38,-519.54z"/>
   <path class="fil4" d="M-19250.38 20820.08c55.71,0.73 362.21,5.11 391.14,-3.32l285.95 -1547.39c-30.56,-43.76 -151.49,-31.88 -204.36,-31.88 -45.96,0 -196.76,-6.38 -224.02,9.91 -4.93,2.95 -46.38,164.66 -49.84,184.11 -5.76,32.4 -6.03,75.8 -9.54,110.15 -3.97,38.75 -20.11,51.85 -27.14,92.54 -6.07,35.04 -5.36,69.35 -9.23,105.02 -4.95,45.59 -18.83,51.07 -27.13,92.57 -8.17,40.88 -4.52,70.99 -9.26,110.43 -5.26,43.64 -20.4,52.39 -27.8,91.89 -27.57,147.36 -21.71,223.04 -131.65,341.67 -83.41,90.01 -251.07,126.14 -369.29,89.36 -142.31,-44.27 -70.17,-261.81 -50.33,-356.64 7.58,-36.24 2.12,-69.4 8.32,-105.94 5.77,-34.05 21.26,-59.24 28.3,-91.39 8.2,-37.48 2.88,-72.85 9.43,-110.26 5.83,-33.3 20.91,-60.25 27.85,-91.84 15.11,-68.91 16.1,-117.01 36.24,-197.7 9.08,-36.37 4.54,-72.77 10,-109.81 5.52,-37.43 21.72,-60.51 29.59,-93.81 21.28,-89.94 -86.86,-79.83 -144.52,-81.37 -352.81,-9.46 -298.93,-1.15 -317.16,156.64 -8.43,72.96 -66.64,322.72 -74.13,399.24 -6.24,63.6 -28.97,119.96 -36.93,202.45 -6.29,65.24 -29.43,112.12 -36.62,197.32 -6.39,75.72 -35.1,109.7 -35.68,203.38 -2.93,479.08 521.46,582.44 834.37,361.3 15.29,-10.8 119.38,-95.08 122.09,-92.39 16.43,16.37 -51.73,64.42 1.35,165.76z"/>
   <path class="fil4" d="M-17847.32 19210.29c-313.1,26.33 -546.44,208.94 -674.05,490.22 -117.43,258.87 -144.29,713.81 31.86,951.7 199.55,269.49 593.37,254.7 869.44,123.69 117.65,-55.83 238.91,-162.04 316.03,-266.64 141.16,-191.51 195.46,-272.93 -78.5,-266.86 -75.37,1.66 -195.27,-32.71 -249.57,32.29 -56.49,67.61 -31.05,104.81 -130.25,162.62 -134.03,78.1 -332.35,81.59 -378.9,-100.02 -73.46,-286.57 -1.03,-747.22 366.13,-757.89 331.5,-9.63 152.87,237.01 324.76,251.86 21.68,1.87 283.15,2.78 294.67,0.47 104.05,-20.89 70.62,-134.93 54.8,-211.06 -77.08,-371.02 -417.88,-438.02 -746.42,-410.38z"/>
   <path class="fil4" d="M-24897.83 19569.02c141.7,46.78 71.88,224.2 300.5,94.45 35.15,-19.95 206.89,-130.62 235.33,-140.06 39.15,-13.01 56.93,-33.76 49.6,-77.38l-311.37 -270.76c-42.49,-36.81 -290.84,-266.83 -318.92,-258 -15.2,4.78 -542.29,512.68 -602.81,570.57 -50.27,48.09 -124.44,93.07 -125.62,168.16 -1.05,67.1 -5.96,554.56 9.14,581.17 23.11,40.7 155.76,-51.38 186.5,-69.98 48.33,-29.26 356.56,-198.59 371.54,-216.03 47.94,-55.82 -29.2,-164 53.11,-240.67 18.76,-17.47 146.96,-138.01 153,-141.47z"/>
   <path class="fil4" d="M-25099.47 21707.46l11.53 -805.18c256.86,-68.31 211.47,161.36 217.28,-435.55 1.05,-108.95 -14.66,-104.31 -114.67,-102.99 -212.06,2.8 -159.06,13.85 -330.27,104.78 -93.15,49.48 -184.16,107.34 -277.07,158.17 -80.21,43.9 -78.96,49.35 -77.95,139.67l-0.4 870.68c0.61,103.43 54.2,75.37 141.82,75.8 105.51,0.51 338.2,12.06 429.73,-5.38z"/>
   <path class="fil4" d="M-16193.02 21560.16c22.54,5.08 116.29,11.66 128.74,-0.47 0.34,-35.29 -2.02,-235.01 5.35,-252.39l237.36 -3.81 43.73 -99.21c-52.25,-50.81 -207.4,-29 -279.58,-35.43l0 -152.33c79.8,-18.58 282.72,7.05 316.97,-31.22 46.63,-140.78 -102.97,-110.24 -197.27,-110.23 -65.23,0 -258.68,-36.74 -261.62,53.93 -2.24,69.11 -4.91,607.21 6.32,631.16z"/>
   <path class="fil4" d="M-15569.64 21576.34l-47.98 75.84 -117.56 9.55c-80.9,86.51 55.64,163.08 152.32,106.81 59.85,-34.84 40,-12.48 91.87,-65.91 7.42,-7.64 53.09,-94.12 56,-107.21 17.06,-76.74 177.37,-441.33 148.83,-485.12l0.15 -11.59c-16.28,-0.21 -119.27,-5.29 -125.42,2.27l-91.61 273.61c-29.03,-11.86 -75.56,-167.33 -81.87,-204.91 -16.55,-98.45 -179.79,-113.11 -165.65,-20.21l125.08 332.79c32.29,50.75 13.54,40.18 55.84,94.08z"/>
   <path class="fil4" d="M-14577.61 21468.08c0,-69.58 -1.01,-32.37 47.59,-66.67 33.96,-23.97 47.68,-24.75 88.43,-14.94 0,96.8 -42.59,104.12 -136.02,81.61zm-82.07 -233.12l198.8 -30.5c81.1,101.96 -101.86,70.61 -147.9,101.87 -66.47,45.14 -125.34,67.64 -110.6,168.54 11.67,79.9 67.18,126.74 156.38,125.16 88.49,-1.57 60.64,-22.05 113.57,-31.98 67.74,-12.71 37.81,43.11 111.93,21.05 82.36,-24.5 53.67,-166.47 53.68,-235.27 0.01,-82.57 11.24,-175.84 -58.15,-235.64 -86.94,-74.93 -460.21,-13.77 -317.71,116.77z"/>
   <path class="fil4" d="M-12929.85 21282.4l-156.48 0.7c22.7,-97.99 162.2,-102.85 156.48,-0.7zm73.05 174.85c-30.25,0.13 -80.82,25.75 -148.02,21.39 -42.84,-2.77 -104.9,-42.93 -82.74,-86.72 33.7,-17.3 212.94,4.55 265.47,-7.2 57.4,-12.85 29.32,-164.4 -4.47,-209.64 -89.32,-119.6 -284.59,-104.33 -367.33,22.82 -45.74,70.3 -43.96,133.56 -34.64,215.9 11.2,99.02 27.35,113.44 106.59,165.47 114.52,75.2 442.58,-10.31 265.14,-122.02z"/>
   <path class="fil4" d="M-15101.73 21564.17l21.05 -319.46c42.7,-36.02 68.42,-63.65 134.77,-39.42 28.28,53.38 14.79,188.71 14.66,257.36 -0.07,40.22 -12.56,96.18 27.25,108.76 31.56,9.98 83.17,20.4 109.28,-10.32 29.12,-34.27 43.09,-421.74 -58.54,-459.33 -159.43,-58.97 -96.72,-1.22 -209.36,1.59 -60.04,1.5 -27.19,-31.9 -103.31,-11.86 -56.57,14.89 -65.49,12.8 -64.95,76.95 0.77,90.72 0.43,181.64 0.42,272.44 -0.01,28.19 -8.33,106.33 13.12,122.89 25.09,19.38 95.4,17.41 115.61,0.4z"/>
   <path class="fil4" d="M-14165.51 21589.15l90.39 3.62c43.1,-59.66 12.34,-268.06 27.07,-351.35 260.01,-136.7 113.22,210.29 161.9,324.08 13.38,31.27 74.61,39.19 99.49,30.22 37.91,-13.68 31.42,-71.67 34.79,-107.09 7.09,-74.49 6.17,-192.64 -3.01,-266.57 -13.13,-105.77 -42.9,-123.7 -148.7,-129.28 -41.14,-2.17 -84.89,9.4 -124.78,16.89 -33.43,6.29 -53.83,-19 -116.92,-9.06 -78.53,12.37 -46.06,169.17 -46.06,231.46 0,58.2 -16.41,220.13 25.83,257.08z"/>
   <path class="fil4" d="M-13498.95 21101.89c-219.19,31.42 -285.42,502.49 47.42,502.4 73.55,-0.02 202.79,-17.09 170.79,-116.51 -26.19,-81.35 -178.83,39.28 -222.35,-33.33 -22.1,-36.87 -39.86,-64.16 -34.27,-115.38 2.8,-25.66 25.76,-88.26 48.19,-104.56 67.6,-49.14 197.82,53.84 210.82,-56.45 11.61,-98.63 -160.85,-84.73 -220.6,-76.17z"/>
  </g>
  <image id="Padrão_x0020_vertical_x0020_-_x0020_ByAvanced_x0020__x0028_4_x0029_.png" x="30816.99" y="4308.87" width="28575.04" height="35720.92" xlink:href="finanças svg so o simbolo azul_Images\finanças svg so o simbolo azul_ImgID2.png"/>
  <g id="_2234746141712">
   <path class="fil2" d="M49142.68 15322.05c20.85,32.72 16.6,195.23 42.35,270.91 23.12,67.97 17.19,203.34 26.74,286.52 5.21,45.38 26.77,76.85 31.48,120.93 8.96,83.82 1.6,212.83 27.86,285.41 21.88,60.5 15.5,75.96 15.5,145.36l-681.57 0c-4.3,-95.78 90.53,-190.47 121.65,-280.52 17.55,-50.77 114.89,-210.7 138.59,-276.27 8.95,-24.76 55.3,-108.62 71.34,-131.87 19.54,-28.31 53.43,-109.24 68.64,-143.02 33.93,-75.36 119.2,-201.24 137.42,-277.45zm-1176.56 2269.38c92.98,-63.67 255.9,-518.47 365.32,-625.28l1039.87 12.1c16.85,65.54 42.61,220.32 52.86,289.04 10.73,71.91 -6.14,251.67 36.41,302.26 41.22,49.01 240.72,29.72 308.53,30.16 55.13,0.37 310.89,6.31 343.01,-5.82 57.87,-21.86 18.94,-215.1 5.84,-266.54 -26.96,-105.87 -25.5,-203.75 -53.39,-294.06 -32.26,-104.46 -17.63,-179.5 -50.57,-288.1 -18,-59.37 -15.17,-89.84 -19.85,-149.48 -4.77,-60.7 -20.12,-89.44 -33.09,-144.72 -12.49,-53.28 -8.41,-101.7 -15.07,-154.26 -5.97,-47.13 -25.84,-88.26 -34.82,-134.51 -10.38,-53.42 -2.96,-102.48 -13.66,-155.67 -10.37,-51.53 -30.11,-87.33 -34.89,-142.91 -9.61,-111.47 -90.71,-502.64 -94.22,-591.58 -3.37,-85.21 -52.2,-325.47 -78.47,-429.54 -15.06,-59.7 -10.57,-103.43 -15.75,-162.04 -12.16,-137.46 -129.04,-103.77 -235.64,-103.04 -114.43,0.79 -231.75,1.35 -346.07,0.25 -124.61,-1.19 -188.63,-34.07 -247.78,90.19 -33.01,69.34 -79.19,154.61 -118.84,220.41 -83.37,138.38 -165.19,300.05 -241.9,443.89 -158.41,297.03 -319.94,594.42 -482.33,889.28 -158.88,288.51 -336.03,596.8 -482.12,889.48 -40.93,82.01 -243.71,380.89 -212.82,455.32 17.4,41.95 256.81,24.86 311.99,24.86 115.79,0 231.76,-1.06 347.45,0.31z"/>
   <path class="fil2" d="M56745.75 15406.71c-115.14,-27.34 -936.46,4.59 -1193.8,-16.93 15.91,-62.24 16.68,-108.65 23.93,-171.18 7.53,-64.89 32.56,-112.66 39.04,-171.89 20.93,-191.32 96.44,-241.5 -111.98,-244.05 -377.91,-4.63 -480.92,-67.16 -492.98,129.72 -5.31,86.7 -16.37,105.84 -35.8,184.41 -15.44,62.45 -8.38,123.81 -25.95,185.71 -22.28,78.45 -25.71,96.61 -32.77,178.91 -5.73,66.92 -30.57,110.3 -39.14,172.52 -10.85,78.72 -8.17,107.83 -32.51,187.62 -19.86,65.1 -12.77,122.13 -26.32,185.35 -16.19,75.58 -31.04,97.97 -36.87,183.26 -10.72,156.66 -117.61,529 -130.3,724.05 -7.97,122.44 19.8,249.75 58,366.03 67.58,205.7 286.07,332.87 486.53,377.05 205.44,45.29 550.59,16.79 740.61,-83.69 332.04,-175.59 459.81,-390.55 556.97,-729.96 19.36,-67.61 28.89,-105.15 35.53,-176.13 6.87,-73.32 31.62,-114.58 40.15,-179.98 9.28,-71.21 5.98,-108.84 30.11,-180.01 73.64,-217.19 -14.54,-158.47 -439.93,-177.43 -167.09,-7.44 -140.76,141.88 -157.83,263.91 -8.71,62.25 -32.66,105.6 -38.64,173.02 -6.92,77.86 -12.81,111.22 -33.94,186.2 -60.26,213.85 -201.13,436.88 -464.34,375.39 -45.77,-10.69 -104.83,-44.06 -140.11,-73.96 -59.85,-50.74 -23.02,-306.03 -18,-373.55 6.51,-87.6 29.34,-100.99 40.09,-180.04 13.17,-96.92 0.62,-80.38 33,-178.67 19.61,-59.53 6.71,-134.91 24.16,-195.97 19.51,-68.29 34.8,-85.78 38.76,-172.9 2.67,-58.72 14.41,-130.9 84.34,-135.8 145.84,-10.2 267.81,17.81 407.19,17.73l642.34 1.81c61.79,7.21 118.87,0.14 128.88,-77.26 11.68,-90.33 3.73,-91.34 34.09,-177.58 17.85,-50.68 20.31,-142.5 7.49,-195.71z"/>
   <path class="fil2" d="M59709.09 16075.58c0,-116.03 -6.6,-77.44 27.36,-125.05 20.08,-28.16 51.75,-62.01 80.62,-71.77 51.29,-17.33 209.91,-40.25 273.2,-40.48 58.29,-0.21 220.3,32.44 246.68,58.18 113.18,110.47 37.55,168.68 86.2,227.06 44.09,37.1 332.3,19.79 412.01,19.79 188.96,0.01 193.08,38.15 179.66,-247.67 -5.07,-108.15 -59.5,-219.63 -130.92,-300.61 -95.75,-108.58 -152.78,-114.63 -274.7,-165.55 -74.09,-30.95 -281.97,-61.73 -367.96,-65.69 -63.43,-2.92 -138.08,-2.32 -201.37,1.19 -64.22,3.56 -120.1,26.86 -188.86,31.25 -212.57,13.6 -448.86,118.08 -599.37,272.7 -188.14,193.28 -194.95,420.43 -112.53,663.36 71.63,211.13 316.8,295.59 498.03,374.04 129.56,56.07 579.54,132.14 629.1,243.15 119.1,266.77 -379.43,351.4 -537.06,291.34 -121.95,-46.47 -208.82,-50.9 -226.76,-205.03 -9.77,-83.89 -12.76,-114.01 -106.29,-113.85 -71.59,0.11 -135.51,-8.18 -211.97,-8.16 -299.71,0.08 -322.4,-31.29 -329.95,101.67 -13.9,244.94 83.39,449.34 301.98,569.77 60.41,33.28 95.22,42.19 154.26,65.87 64.32,25.8 281.42,74.13 356.69,75.1 88.45,1.14 313.56,21.95 411.92,-10.64 79.55,-26.36 122.49,-18.36 184.18,-35.96 10.46,-2.98 149.69,-55.52 153.75,-57.91 209.7,-123.59 149.83,-32.68 377.58,-282.82 51.59,-56.67 123.56,-225.59 130.75,-301.05 22.1,-231.99 -25.82,-498.08 -272.71,-593.41 -38.25,-14.77 -41.81,-21.07 -72.96,-37.11 -35.01,-18.03 -52.74,-7.59 -88.35,-21.71 -34.77,-13.79 -30.65,-26.52 -75.5,-34.58 -44.06,-7.91 -44.42,-0.07 -87.45,-22.61 -66.61,-34.89 -94.93,-12.64 -163.86,-47.8 -62.48,-31.87 -91.25,-11.87 -168.74,-51.4 -37.79,-19.29 -52.66,-10.21 -87.78,-22.29 -22.86,-7.86 -45.24,-25.61 -73.45,-36.62 -81.09,-31.66 -62.78,-48.61 -125.43,-94.7z"/>
   <path class="fil2" d="M58032.69 17438.71c-17.28,2.62 -8.36,-27.49 -0.56,-10.63 0.03,0.06 20.41,7.64 0.56,10.63zm-18.39 9.92c5.19,67.65 -34.4,129.89 -1.45,196.19 35.88,11.97 326.78,22.49 383.91,22.5 183.28,0.02 204.81,6.82 219.12,-187.28 6.6,-89.47 26.33,-90.93 36.81,-166.39 8.31,-59.81 2.34,-119.85 26.46,-176.74 27.9,-65.78 19.46,-107.08 27.8,-175.4 8.1,-66.33 29.92,-94.83 39.81,-171.86 12.1,-94.21 6.49,-80.12 33.96,-169.23 19.35,-62.75 7.16,-121.6 21.11,-182.1 18.68,-81 28.91,-67 36.07,-167.13 5.89,-82.22 31.62,-111.92 40.18,-171.49 7.55,-52.65 5.01,-137.05 22.86,-180.34 31.13,-75.5 24.66,-94.79 29.82,-173.38 5.9,-89.93 97.45,-250.39 19.23,-333.7 -47.28,-15.79 -243.7,-5.57 -307.7,-5.57 -72.28,0 -249.32,-33.6 -274.12,47.62 -14.96,49 1.92,71.65 -25.22,135.65 -24.64,58.12 -19.01,77.95 -23.28,137.58 -7.16,100.16 -46.52,158.44 -49.79,271.94 -2.04,70.68 -17.24,68.96 -32.14,128.74 -14.03,56.34 -6.21,92.58 -14.5,146.36 -7.81,50.73 -29.59,75.6 -36.01,124.85 -5.62,43.09 -4.62,105.65 -13.13,147.74 -9.98,49.34 -25.84,56.32 -34.19,126.68 -8.5,71.52 1.44,64.31 -32.4,128.47 -20.72,39.29 -26.18,102.47 -112.72,209.01 -112.59,138.6 -282.85,185.38 -466.52,161.32 -103.51,-13.56 -167.69,-20 -193.23,-128.51 -33.73,-143.29 -9.09,-134.65 5.16,-272.53 4.9,-47.45 3.34,-94.14 23.27,-137.6 46.59,-101.58 -1.37,-113.97 54.14,-267.6 16.87,-46.69 12.41,-94.21 18.43,-142.43 9.02,-72.21 22.78,-72.82 34.24,-126.62 10.09,-47.34 7.95,-101.43 13.13,-147.74 4.86,-43.42 28.82,-69.28 37.01,-123.87 7.97,-53.19 -2.63,-95.59 14.3,-146.56 115.81,-348.6 -1.64,-280.96 -272.5,-280.96 -56.9,0 -273.01,-17.66 -295.86,26.02l-101.9 541.42c-2.63,71.3 -16.67,67.83 -32.23,128.63 -14.04,54.83 -6.27,93.86 -14.25,146.62 -7.37,48.79 -29.99,76.88 -35.99,124.88 -5.4,43.23 -5.57,106.92 -13.52,147.34 -8.67,44.08 -27.24,62.26 -35.37,125.5 -6.23,48.39 1.18,97.62 -17.47,143.4 -41.59,102.11 -29.15,176.02 -29.15,284.13 0,295.13 11.53,137.91 42.9,278.83 9.51,42.7 94.08,166.71 127.65,194.09 143.75,117.24 118.02,77.04 195.51,126.22 20.52,13.02 236.94,52.85 268.69,53.56 32.04,0.72 250.5,-30.08 284.62,-38.15 13.99,-3.3 208.66,-92.72 220.24,-101.49 41.33,-31.3 147.24,-133.01 188.21,-130.62z"/>
   <path class="fil2" d="M51588.62 17362.39l6.63 35.48 -11.18 -0.76 4.55 -34.72zm-20.56 39.79c26.79,36.65 -32.87,140.36 5.31,195.16 42.8,20.67 306.61,6.9 382.74,16.68 177.99,22.86 213.24,-9.6 217.6,-183.81 1.77,-70.81 32.59,-97.81 40.29,-162.91 7.63,-64.52 -1.84,-116.26 26.47,-176.73 21.99,-46.97 23.92,-123.27 26.43,-176.77 2.48,-52.77 34.48,-92.78 41,-162.19 9.38,-99.77 -0.79,-75.63 31.05,-172.16 18.05,-54.73 13.2,-123.77 21.62,-181.58 6.8,-46.73 31.1,-90.52 39.35,-163.85 3.78,-33.64 -1.74,-62.34 7.57,-94.03 9.15,-31.09 20.09,-33.91 28.01,-73.59 12.6,-63.08 2.61,-123.34 21.78,-181.42 28.52,-86.44 23.27,-77.83 34.37,-168.83 8.99,-73.66 85.65,-289.36 26.33,-340.4 -18.11,-15.06 -274.82,-20.21 -318.72,-19.95 -83.64,0.5 -249.28,-31.87 -274.67,64.22 -17.2,65.09 4.7,58.62 -28.69,140.64 -19.14,47 -16.43,100.31 -18.53,150.81 -2.55,61.25 -25.89,79.26 -36.64,132.69 -10.76,53.44 -4.51,109.07 -15.73,162.08 -10.49,49.57 -25.97,62.94 -35.13,134.2 -6.45,50.2 -1.25,99.22 -22.8,146.53 -23.02,50.53 -24.42,88.77 -25.05,144.28 -0.91,79.21 -17.46,75.96 -33.69,135.65 -14.81,54.41 1.19,144.66 -67.41,271.25 -35.02,64.62 -96.77,147.19 -155.34,191.8 -77.15,58.78 -138.32,93.99 -242.83,95.84 -102.88,1.81 -214.96,17.56 -296.3,-43.05 -108.2,-80.62 -49.06,-261.63 -42.68,-414.47 2.58,-61.88 28.36,-84.44 37.99,-139.81 8.89,-51.14 3.91,-104.7 15.33,-154 13.91,-60.04 24.82,-56.56 34.1,-135.24 7.27,-61.68 0.96,-84.53 25.18,-144.15 19.25,-47.4 21.54,-95.37 22.86,-146.47 1.83,-70.6 19,-76.71 34.45,-134.89 10.4,-39.17 11.89,-109 16.2,-153.13 10.21,-104.49 68.64,-155.09 34,-296.2 -47.21,-11.54 -551.27,-16.71 -579.81,-3.7 -14.08,6.43 -64.18,196.79 -68.19,227.77 -6.05,46.79 1.01,97.2 -11.83,140.57 -15.91,53.71 -29.78,53.48 -33.91,118.48 -7.23,113.63 -34.27,156.67 -45.28,251.06 -4.9,42.06 -2.31,100.32 -15.43,136.97 -19.27,53.84 -27.92,57.81 -31.77,120.64 -5.1,83.24 -84.2,431.07 -91.74,509.39 -25.21,262.15 9.08,499.68 221.85,670.46 36.01,28.91 160.31,97.11 201.17,103.63 65.84,10.51 207.72,32.42 268.64,27.48 139.54,-11.31 351.35,-61.67 458.06,-142.92 31.96,-24.35 144.93,-125.61 172.42,-122.03z"/>
   <path class="fil2" d="M53680.82 15322.05c-260.53,41.26 -401.6,49.75 -633.56,196.17 -163.5,103.2 -301.95,270 -387.02,442.72 -173.41,352.11 -244.47,1035.62 -17.2,1372.55 368.28,545.99 1235.52,429.38 1681.73,-114.42 67.37,-82.1 107.7,-165.58 157.24,-257.63 102.66,-190.74 -23.85,-163.02 -176.85,-158.05 -93.95,3.06 -316.41,-34.61 -384.72,12.04 -44.61,30.47 -73.84,155.89 -176.93,237.22 -161.08,127.08 -463.77,166.99 -558.64,-57.81 -147.34,-349.15 -51.43,-1071.59 424.11,-1136.94 503.68,-69.22 361.59,287.67 463.48,342.51 53.47,28.78 317.92,17.08 396.74,19.96 197.9,7.26 217.43,-24.38 191.62,-228.23 -27.46,-216.87 -124.61,-397.71 -308.2,-520.63 -165.23,-110.61 -477.77,-180.2 -671.8,-149.46z"/>
   <path class="fil2" d="M55930.64 18668.69c25.8,22.43 153.03,23.37 177.21,3.26l19.42 -361.18c77.78,-18.63 183.45,1.36 272.08,0.74 86.2,-0.6 139.6,-82.53 112.24,-164.5 -65.3,-56.78 -287.37,-30.96 -383.9,-30.96l0 -237.07 434.3 -9.71c23.16,-44.49 38.2,-156.26 -35.44,-160.56 -68.9,-4.01 -158.13,0.92 -229.53,0.94 -91.3,0.02 -372.19,-50.61 -381.2,59.07 -7.91,96.39 -12.32,868.75 14.82,899.97z"/>
   <path class="fil2" d="M56823.27 18700.94l-61.06 98.67 -145.76 4.2c-32.5,24.5 -75.78,91.49 -59.05,135.59 70.67,65.51 248.78,50.08 317.65,-8.25 86.43,-73.2 123.74,-171.49 155.49,-276.31 11.83,-39.03 21.37,-24.27 33.55,-68.05 8.96,-32.22 5.6,-57 23,-87.07 36.09,-62.33 23.67,-82.52 60.73,-150.94 14.84,-27.4 11.2,-54.19 19.13,-82.46 12.02,-42.85 24.09,-27.8 35.7,-74.37 9.7,-38.9 2.68,-48.45 24.32,-85.99 76.72,-133.06 -128.9,-107.35 -156.77,-88.8 -24.92,16.58 -62.32,104.22 -66.8,136.41 -11.53,82.87 -36.95,67.64 -45.77,148.95 -3.05,28.09 -47.54,130.13 -55.59,139.84 -13.97,-21.52 -56.83,-206.3 -75.53,-237.73 -41.22,-69.26 -27.76,-153.53 -105.85,-207.42 -71.83,0.84 -206.52,-13.95 -141.69,98.91 23.14,40.28 7.11,60.83 31.96,103.95l77.44 201.97c13.06,56.27 29.78,35.99 41.8,102.13 11.1,61.06 30.35,56.07 41.9,102.03 22.64,90.03 8.57,34.69 51.2,94.74z"/>
   <path class="fil2" d="M58447.56 18412.38l0 110.07c-72.76,1.54 -187.36,100.25 -202.53,-11.27 -10.68,-78.57 139.85,-98.8 202.53,-98.8zm-144.26 -413.57c-88.44,36.13 -294.25,44.03 -202.15,192.72 14.83,23.94 45.42,37.79 71.98,30.67 45.6,-12.22 4.12,-27.74 79.68,-38.43 60.24,-8.51 131.9,-37.36 179.81,16.21 63.28,70.75 -63.01,57.7 -117.53,79.94 -40.5,16.52 -49.16,13.25 -89.52,20.54 -41.05,7.43 -168.15,73.41 -183.74,163.51 -10.17,58.79 -14.08,136.91 28.4,181.81 29.75,31.45 95.73,74.39 141.1,79.05 124.77,12.81 101.43,-14 188.65,-39.19 106.09,-30.64 251.98,135.37 250.8,-137.76 -0.68,-157.94 18.18,-277.17 -31.58,-425.67 -35.02,-104.5 -217.31,-163.69 -315.9,-123.4z"/>
   <path class="fil2" d="M60575.59 18271.35c-11.23,3.54 -283.69,23.4 -183.24,-72.63 46.02,-44 218.42,-32.25 183.24,72.63zm-231.5 149.5c69.13,0 390.35,16.78 426.37,-22.37 61.37,-66.71 -26.96,-276.68 -101.73,-327.67 -79.84,-54.45 -73.41,-48.59 -175.45,-49.84 -68.57,-0.84 -127.8,-6.42 -184.8,34.07 -223.42,158.69 -217.76,470.52 -55.97,609.79 85.98,74.01 266.3,94.21 375.2,56.57 30.2,-10.44 25.51,-21.65 73.29,-36.79 99.4,-31.51 20.02,-205.97 -81.79,-141.47 -80.26,50.84 -177.56,53.97 -244.18,-34.7 -37.67,-50.13 -30.94,-13.41 -30.94,-87.59z"/>
   <path class="fil2" d="M58988.76 18047.91c-42.22,-47.89 -37.71,-41.39 -97.05,-30.38 -46.75,8.68 -75.72,2.97 -111.64,41.56l-2.27 604.9c53.44,57.57 93.36,59.35 167.44,51.34 85.68,-117.7 -3.75,-397.28 46.27,-512.53 42.2,-28.24 176.25,-43.18 210.82,5.14 56.11,78.43 -30.5,464.94 46.83,503.51 69.92,34.88 170.54,-1.23 172.66,-95.27 5.69,-252.31 61.75,-582.82 -204.97,-617.96 -42.57,-5.61 -186.79,32.16 -228.09,49.69z"/>
   <path class="fil2" d="M57327.05 18677.75c47.99,23.85 143.57,21.65 180.7,-11.37 35.29,-76.54 -18.73,-383.41 19.11,-471.95 12.73,-9.25 76.56,-23.35 98.58,-29.33 46.91,-12.75 55.01,0.21 96.88,15.78 39.12,117.2 -11.45,395.37 19.6,488.41 39.67,31.84 69.36,23.56 122.18,23.36 69.87,-0.26 68.45,-9.14 67.62,-76.44 -1.2,-96.12 -0.63,-192.34 -0.63,-288.49 0,-135.99 48.95,-339.17 -237.52,-339.17 -87.05,-0.01 -50.69,13.12 -111.95,32.73 -94.56,30.27 -81.34,-68.95 -216.87,-14.42 -50.45,20.3 -44.28,45.22 -43.63,100.35 1.08,91.34 -10.94,520 5.93,570.54z"/>
   <path class="fil2" d="M60047.76 18530.92c-95.09,-43.83 -152.41,111.87 -288.67,-7.67 -19.44,-17.06 -21.45,-47.61 -33.22,-76.87 -34.68,-86.22 -6.69,-87.75 11.83,-166.26 42.22,-179 230.55,-56.32 301.59,-87.87 30.82,-17.59 96.22,-125.71 -33.2,-161.54 -154.22,-42.7 -328.08,-22.01 -424.89,118.32 -93.41,135.38 -98,353.1 -10.79,461.3 106.2,131.74 293.76,157.04 437.51,83.95 34.01,-17.3 82.4,-12.36 89.52,-64.02 3.49,-25.32 -28.54,-84.1 -49.68,-99.34z"/>
  </g>
  <g id="_2234746142384">
   <path class="fil5" d="M14049.95 7472.55l25.4 7967.15c255.85,21.43 450.44,20.27 705.99,9.07 170.64,-7.49 563.74,80.92 628.34,-105.61 21.07,-60.84 3.41,-1290.91 3.41,-1469.8l0 -7340.61c0,-234.52 -14.2,-505.85 -1.73,-734.87 13.55,-249.07 88.6,-493.09 -248.81,-487.8 -488.62,7.66 -977.95,17.95 -1467.24,20.91 -236.03,1.43 -498.71,9.82 -731.91,0.38 -72.53,-2.93 -609.37,-63.66 -434.07,139.88 105.29,122.25 755.03,592.65 766.43,697.95 11.42,105.51 -250.46,274.25 -333.6,359.69 -202.57,208.17 -1091.17,977.7 -1120.81,1074.53 -42.38,138.42 168.29,313.55 247.82,426.22 90.46,128.15 214.36,303.8 312.92,421.9 266.92,319.84 204.17,83.08 814.83,-338.82 139.87,-96.64 728.02,-637.94 833.03,-640.17z"/>
   <path class="fil5" d="M13135.55 9386.02c-174.65,93.65 -342.88,192.62 -515.55,288.79 -164.29,91.5 -365.42,192.72 -520.07,284.26 -229.56,135.88 -187.46,397.12 -176.52,627.82 12.44,262.29 1.42,541.14 1.4,805.73 -0.03,535.31 3.27,1070.75 -2.68,1605.99 -5.9,530.46 155.14,1046.63 -604.33,986.73 -267.83,-21.12 -387.1,-130.01 -411.03,-397.2 -20.85,-232.89 3.1,-558.36 1.21,-806.15 -3.95,-516.91 -20.73,-1097.27 2.28,-1608.3 5.28,-117.22 73.26,-605 -170.06,-478.84 -103.96,53.91 -384.41,253.21 -498.72,332.53 -151.41,105.05 -390.7,175.86 -458.23,349.38 -65.31,167.79 0.59,554.23 -0.45,756.45 -2.66,517.39 -10.86,1084.3 6.54,1598.09 13.92,410.79 170.29,852.95 443.34,1165.33 939.66,1074.97 2704.46,466.46 2929.38,-776.62 69.55,-384.36 24.29,-1159.09 24.29,-1584.38 0,-536.23 0,-1072.45 0,-1608.67 0,-405.78 49.66,-1186.56 -50.8,-1540.94z"/>
   <path class="fil5" d="M9232.41 8099.09c-169.58,120.97 -1885.83,1775.93 -1906.02,1844.72 -22.4,76.34 -6.98,1165.61 -5.83,1396.77 0.6,119.65 -51.52,365.75 160.09,231.24 359.83,-228.71 813.05,-488.92 1189.9,-690.26 339.4,-181.33 8.25,-505.4 235.39,-695.94 85.09,-71.37 163.89,-145.58 246.91,-218.76 62.55,-55.14 193.65,-221.69 270.56,-128.8 67.43,81.45 150.42,158.43 225.34,240.75 138.91,152.63 105.71,162.53 279.15,78.91 80.7,-38.91 216.23,-144.08 292.83,-172.85 78.41,-29.44 225.84,-146.97 298.46,-175.67 85.03,-33.59 216.67,-120.04 295.76,-169.91 149.47,-94.24 54.44,-133.97 -69.87,-233.47 -136.42,-109.2 -385.2,-320.37 -502.49,-437.31 -95.24,-94.93 -902.52,-790.98 -1010.18,-869.42z"/>
   <path class="fil5" d="M8715.94 11951.42c-121.05,25.38 -740.31,409.93 -898.18,498.83 -601.97,339 -498.71,186.04 -498.81,898.18 -0.07,465.67 -0.01,931.33 -0.01,1397 0.01,845.64 -155.68,711.19 685.8,711.2 215.89,0 491.14,15.8 698.52,4.25 143.17,-7.98 128.76,-109.83 123.96,-223.18 -5,-117.97 -0.89,-238.32 -1.11,-356.71 -0.85,-446.16 24.64,-963.73 -3.62,-1400.61 -22.2,-343.24 276.98,-133.47 500.72,-193.55 119.05,-31.97 70.04,-514.2 70.06,-632.68 0.02,-104.84 20.45,-618.85 -21.37,-672.88 -45.81,-59.18 -565.41,-48.82 -655.96,-29.85z"/>
  </g>
 </g>
</svg>
